<svg width="1440" height="960" fill="none" xmlns="http://www.w3.org/2000/svg"><g clip-path="url(#clip0_1138_263)"><path d="M1046.56 793.6C1082.24 838.88 1094.72 902.4 1081.92 960.64C1069.12 1018.88 1031.2 1072.16 978.72 1098.72C926.4 1125.12 859.52 1124.96 805.12 1098.72C750.56 1072.64 708.48 1020.48 696.32 962.88C684.16 905.28 702.08 842.08 739.68 796.32C777.44 750.56 835.2 722.24 893.44 721.6C951.84 721.12 1010.88 748.32 1046.56 793.6Z" stroke="#FFF7F7" stroke-width="20"/><path d="M1365.44 444.16C1400.64 486.88 1413.28 549.12 1399.2 603.2C1385.28 657.28 1344.48 703.2 1293.28 728.64C1241.92 753.92 1179.84 758.88 1129.6 736C1079.36 713.12 1040.96 662.24 1028 605.6C1015.04 548.96 1027.52 486.56 1062.72 443.84C1098.08 401.12 1156.16 378.24 1214.24 378.4C1272.32 378.4 1330.24 401.6 1365.44 444.16Z" stroke="#FFF7F7" stroke-width="20"/><path d="M782.72 163.84C818.72 207.36 830.72 271.52 816.32 327.68C802.08 384 761.44 432.48 708.8 459.04C656.16 485.76 591.36 490.4 541.44 465.92C491.36 441.28 456.16 387.36 444.16 329.6C432.16 272 443.52 210.4 477.76 167.2C512.16 124.16 569.76 99.3601 628.32 98.4001C687.04 97.4401 746.88 120.32 782.72 163.84Z" stroke="#FFF7F7" stroke-width="20"/><path d="M326.88 440.32C362.4 485.12 373.28 549.28 358.88 605.92C344.48 662.56 305.12 711.68 254.24 735.36C203.52 759.2 141.28 757.44 89.6 733.12C37.76 708.64 -3.68001 661.44 -15.68 607.84C-27.68 554.08 -10.24 494.08 25.92 449.28C61.92 404.32 116.48 374.56 173.92 372.48C231.36 370.24 291.52 395.52 326.88 440.32Z" stroke="#FFF7F7" stroke-width="20"/><path d="M163.2 -84.4802C200.32 -38.8802 215.52 25.1198 201.6 81.1198C187.52 136.96 144.48 184.64 91.36 209.28C38.24 234.08 -24.8 235.84 -75.68 211.52C-126.4 187.36 -164.8 136.96 -176 82.0798C-187.2 27.1998 -171.2 -32.1602 -136 -77.4402C-100.8 -122.56 -46.4 -153.44 10.4 -155.36C67.04 -157.28 126.08 -130.08 163.2 -84.4802Z" stroke="#FFF7F7" stroke-width="20"/><path d="M1549.92 -80.6398C1584.32 -38.2398 1596.32 22.8802 1582.72 76.4802C1569.12 129.92 1529.92 176 1479.52 201.44C1428.96 226.88 1367.2 231.84 1314.4 209.6C1261.6 187.36 1217.76 138.08 1204.32 81.2802C1190.88 24.3202 1207.68 -39.9998 1245.6 -83.1998C1283.52 -126.56 1342.56 -148.64 1400.48 -147.84C1458.56 -147.04 1515.36 -123.2 1549.92 -80.6398Z" stroke="#FFF7F7" stroke-width="20"/></g><defs><clipPath id="clip0_1138_263"><rect width="1440" height="960" fill="white"/></clipPath></defs></svg>