<svg width="51" height="40" fill="none" xmlns="http://www.w3.org/2000/svg"><g clip-path="url(#clip0_169278_694135)"><path fill-rule="evenodd" clip-rule="evenodd" d="M10.7025 0.00488281C7.83808 0.00488281 5.71857 2.51198 5.81348 5.23087C5.90457 7.84297 5.78622 11.226 4.93457 13.9849C4.07988 16.7516 2.63543 18.5048 0.275604 18.7298V21.2704C2.63543 21.4959 4.07988 23.2482 4.93447 26.0153C5.78622 28.7742 5.90447 32.1572 5.81338 34.7693C5.71847 37.4878 7.83798 39.9953 10.7029 39.9953H40.0534C42.9178 39.9953 45.0369 37.4882 44.942 34.7693C44.8509 32.1572 44.9692 28.7742 45.8209 26.0153C46.6756 23.2482 48.1165 21.4952 50.4764 21.2704V18.7298C48.1166 18.5043 46.6757 16.7519 45.8209 13.9849C44.9691 11.2264 44.8509 7.84297 44.942 5.23087C45.0369 2.51237 42.9178 0.00488281 40.0534 0.00488281H10.7021H10.7025ZM34.3101 24.6216C34.3101 28.3654 31.5176 30.6359 26.8833 30.6359H18.9945C18.7689 30.6359 18.5524 30.5463 18.3929 30.3867C18.2333 30.2271 18.1437 30.0107 18.1437 29.785V10.2153C18.1437 9.98959 18.2333 9.77317 18.3929 9.6136C18.5524 9.45404 18.7689 9.36439 18.9945 9.36439H26.8384C30.7026 9.36439 33.2386 11.4575 33.2386 14.6712C33.2386 16.9268 31.5326 18.9461 29.3591 19.2998V19.4175C32.3178 19.742 34.3101 21.7912 34.3101 24.6216ZM26.0231 12.0616H21.5251V18.4151H25.3135C28.2423 18.4151 29.8571 17.2358 29.8571 15.1279C29.8568 13.1524 28.4685 12.0616 26.0231 12.0616ZM21.5251 20.9361V27.9378H26.1886C29.2379 27.9378 30.8531 26.7143 30.8531 24.4148C30.8531 22.1154 29.1926 20.9357 25.9925 20.9357H21.5251V20.9361Z" fill="#7952B3"/></g><defs><clipPath id="clip0_169278_694135"><rect width="50.2008" height="40" fill="white" transform="translate(0.275604)"/></clipPath></defs></svg>