<svg width="36" height="40" viewBox="0 0 36 40" fill="none" xmlns="http://www.w3.org/2000/svg">
<g clip-path="url(#clip0_169278_694137)">
<path d="M35.6863 11.841C35.6861 11.175 35.5436 10.5865 35.2556 10.0816C34.9727 9.58485 34.549 9.16859 33.9806 8.83947C29.2893 6.13441 24.5934 3.43762 19.9035 0.729805C18.6392 -0.00012973 17.4133 0.026619 16.1583 0.767033C14.291 1.86814 4.94208 7.22435 2.15622 8.83796C1.00892 9.50226 0.450646 10.5187 0.45037 11.8397C0.448578 17.2798 0.45037 22.7198 0.448578 28.1599C0.448578 28.8112 0.585217 29.3884 0.860562 29.8857C1.14363 30.3974 1.57326 30.8251 2.1547 31.1616C4.9407 32.7752 14.2909 38.131 16.1578 39.2326C17.4133 39.9734 18.6392 39.9999 19.904 39.2698C24.5939 36.5618 29.2901 33.8651 33.9822 31.16C34.5636 30.8236 34.9932 30.3956 35.2763 29.8843C35.5512 29.3869 35.6881 28.8098 35.6881 28.1583C35.6881 28.1583 35.6881 17.2812 35.6863 11.841Z" fill="#A179DC"/>
<path d="M18.1223 19.947L0.860565 29.8859C1.14363 30.3976 1.57327 30.8253 2.1547 31.1619C4.9407 32.7755 14.2909 38.1313 16.1578 39.2328C17.4133 39.9736 18.6392 40.0001 19.904 39.27C24.5939 36.5621 29.2901 33.8653 33.9822 31.1602C34.5636 30.8238 34.9932 30.3958 35.2763 29.8846L18.1223 19.947Z" fill="#280068"/>
<path d="M35.6863 11.8411C35.6861 11.1752 35.5436 10.5867 35.2556 10.0818L18.1223 19.9471L35.2763 29.8845C35.5512 29.387 35.6879 28.81 35.6881 28.1585C35.6881 28.1585 35.6881 17.2813 35.6863 11.8411Z" fill="#390091"/>
<path d="M28.2854 16.2314V18.0892H30.1432V16.2314H31.0721V18.0892H32.9299V19.0181H31.0721V20.8758H32.9299V21.8047H31.0721V23.6625H30.1432V21.8047H28.2854V23.6625H27.3565V21.8047H25.4988V20.8758H27.3565V19.0181H25.4988V18.0892H27.3565V16.2314H28.2854ZM30.1432 19.018H28.2854V20.8758H30.1432V19.018Z" fill="white"/>
<path d="M18.1602 6.9015C23.0058 6.9015 27.2364 9.53308 29.5024 13.4447L29.4804 13.4071L23.7791 16.6897C22.6559 14.7879 20.5968 13.5044 18.2345 13.478L18.16 13.4775C14.5579 13.4775 11.6376 16.3978 11.6376 19.9999C11.6365 21.1353 11.9331 22.2511 12.4979 23.236C13.6222 25.1987 15.7357 26.5225 18.1602 26.5225C20.5997 26.5225 22.7252 25.1819 23.8437 23.1982L23.8166 23.2458L29.5092 26.5436C27.268 30.4221 23.0953 33.0456 18.3061 33.0978L18.1602 33.0986C13.2992 33.0986 9.05668 30.4508 6.79628 26.5185C5.69283 24.5988 5.06148 22.3733 5.06148 19.9999C5.06148 12.7659 10.9258 6.90137 18.16 6.90137L18.1602 6.9015Z" fill="white"/>
</g>
<defs>
<clipPath id="clip0_169278_694137">
<rect width="35.552" height="40" fill="white" transform="translate(0.292358)"/>
</clipPath>
</defs>
</svg>
