<svg width="137" height="40" viewBox="0 0 137 40" fill="none" xmlns="http://www.w3.org/2000/svg">
<g clip-path="url(#clip0_169278_694139)">
<mask id="mask0_169278_694139" style="mask-type:luminance" maskUnits="userSpaceOnUse" x="33" y="10" width="14" height="25">
<path d="M33.3017 11.7927C35.9768 19.9767 36.9916 34.5767 44.8175 34.5767C45.413 34.5767 46.015 34.5182 46.6198 34.4032C39.5053 32.7447 38.6612 18.3033 34.3201 10.8253C33.9738 11.1406 33.6341 11.4632 33.3012 11.7927" fill="white"/>
</mask>
<g mask="url(#mask0_169278_694139)">
<mask id="mask1_169278_694139" style="mask-type:luminance" maskUnits="userSpaceOnUse" x="33" y="10" width="14" height="25">
<path d="M46.5928 34.5818H33.2748V10.8304H46.5928V34.5818Z" fill="white"/>
</mask>
<g mask="url(#mask1_169278_694139)">
<mask id="mask2_169278_694139" style="mask-type:luminance" maskUnits="userSpaceOnUse" x="33" y="10" width="14" height="25">
<path d="M46.5928 10.8299V34.5818H33.2748V10.8304L46.5928 10.8299Z" fill="white"/>
</mask>
<g mask="url(#mask2_169278_694139)">
<path d="M46.5928 34.5818H33.2748V10.8304H46.5928V34.5818Z" fill="url(#paint0_linear_169278_694139)"/>
</g>
</g>
</g>
<mask id="mask3_169278_694139" style="mask-type:luminance" maskUnits="userSpaceOnUse" x="34" y="10" width="15" height="25">
<path d="M34.3206 10.8251C38.6617 18.3032 39.5048 32.7446 46.6202 34.4031C47.1782 34.3001 47.7393 34.1452 48.3005 33.9486C41.9142 30.8194 40.149 16.7978 35.2194 10.0464C34.9208 10.295 34.6165 10.5543 34.3211 10.8247" fill="white"/>
</mask>
<g mask="url(#mask3_169278_694139)">
<mask id="mask4_169278_694139" style="mask-type:luminance" maskUnits="userSpaceOnUse" x="34" y="10" width="15" height="25">
<path d="M48.3427 34.4351H34.3642V10.0784H48.3427V34.4351Z" fill="white"/>
</mask>
<g mask="url(#mask4_169278_694139)">
<mask id="mask5_169278_694139" style="mask-type:luminance" maskUnits="userSpaceOnUse" x="34" y="10" width="15" height="25">
<path d="M48.3427 10.0784V34.4351H34.3642V10.0784H48.3427Z" fill="white"/>
</mask>
<g mask="url(#mask5_169278_694139)">
<path d="M48.3427 34.4351H34.3642V10.0784H48.3427V34.4351Z" fill="url(#paint1_linear_169278_694139)"/>
</g>
</g>
</g>
<path d="M40.5759 6.37793C39.9815 6.37793 39.3774 6.43581 38.7727 6.55157C37.1891 6.84987 35.5803 7.53108 33.9586 8.56366C34.4019 9.00147 34.8231 9.50087 35.2189 10.0478C36.8682 8.67496 38.5063 7.66725 40.1399 7.05914C40.7359 6.83652 41.35 6.66583 41.9754 6.54897C41.5177 6.43389 41.0474 6.37654 40.5755 6.37829" fill="#14559A"/>
<path d="M53.147 32.7962C52.8391 32.5016 52.5467 32.1803 52.2588 31.8315C50.9342 32.7702 49.6126 33.4826 48.2999 33.9449C48.7663 34.1735 49.2561 34.3419 49.7751 34.4477C50.1773 34.5308 50.5914 34.5723 51.0366 34.5723C52.5085 34.5723 53.6724 34.3968 54.6638 33.923C54.1184 33.6277 53.6175 33.2455 53.15 32.7925" fill="#1969BC"/>
<mask id="mask6_169278_694139" style="mask-type:luminance" maskUnits="userSpaceOnUse" x="40" y="6" width="14" height="26">
<path d="M40.1397 7.05953C46.5692 10.422 47.1276 25.6508 52.2585 31.835C52.6017 31.5929 52.9425 31.3359 53.2788 31.0651C50.068 23.9506 49.1488 8.33029 41.9717 6.54796C41.3586 6.66205 40.7473 6.82624 40.1351 7.05953" fill="white"/>
</mask>
<g mask="url(#mask6_169278_694139)">
<mask id="mask7_169278_694139" style="mask-type:luminance" maskUnits="userSpaceOnUse" x="40" y="6" width="14" height="26">
<path d="M53.3168 31.8665H40.1731V6.57807H53.3168V31.8665Z" fill="white"/>
</mask>
<g mask="url(#mask7_169278_694139)">
<mask id="mask8_169278_694139" style="mask-type:luminance" maskUnits="userSpaceOnUse" x="40" y="6" width="14" height="26">
<path d="M53.3168 6.57807V31.8665H40.1731V6.57807H53.3168Z" fill="white"/>
</mask>
<g mask="url(#mask8_169278_694139)">
<path d="M53.3168 31.8665H40.1731V6.57807H53.3168V31.8665Z" fill="url(#paint2_linear_169278_694139)"/>
</g>
</g>
</g>
<mask id="mask9_169278_694139" style="mask-type:luminance" maskUnits="userSpaceOnUse" x="35" y="7" width="18" height="27">
<path d="M35.219 10.0473C40.149 16.7982 41.9137 30.8249 48.3 33.9495C49.6126 33.4866 50.9334 32.7752 52.2585 31.836C47.1276 25.6514 46.5692 10.423 40.1397 7.06056C38.5072 7.66719 36.8682 8.67824 35.2236 10.0473" fill="white"/>
</mask>
<g mask="url(#mask9_169278_694139)">
<mask id="mask10_169278_694139" style="mask-type:luminance" maskUnits="userSpaceOnUse" x="35" y="7" width="18" height="27">
<path d="M52.2506 33.9565H35.2111V7.06624H52.2506V33.9565Z" fill="white"/>
</mask>
<g mask="url(#mask10_169278_694139)">
<mask id="mask11_169278_694139" style="mask-type:luminance" maskUnits="userSpaceOnUse" x="35" y="7" width="18" height="27">
<path d="M52.2506 7.06697V33.9573H35.2111V7.06697H52.2506Z" fill="white"/>
</mask>
<g mask="url(#mask11_169278_694139)">
<path d="M52.2506 33.9565H35.2111V7.06624H52.2506V33.9565Z" fill="url(#paint3_linear_169278_694139)"/>
</g>
</g>
</g>
<path d="M33.1486 9.10303L32.4644 9.60688C32.7642 10.2614 33.0414 10.9964 33.3007 11.796L34.321 10.8287C33.9563 10.2031 33.5701 9.62432 33.1486 9.1071" fill="#2B74B1"/>
<path d="M33.9586 8.56312L33.1486 9.10297C33.5686 9.62056 33.956 10.1994 34.3211 10.8245L35.219 10.0461C34.822 9.49997 34.402 8.99983 33.9586 8.56201" fill="#125A9E"/>
<path d="M30.147 11.5964C30.9202 10.8588 31.6942 10.1958 32.4644 9.60771L31.9079 8.54175C31.286 9.29642 30.7184 10.2919 30.1433 11.5968" fill="#0D82CA"/>
<path d="M30.7054 7.04208C31.1506 7.41459 31.5476 7.92699 31.9112 8.54104L32.2618 8.14775C31.7572 7.67654 31.2118 7.28919 30.6182 6.99756L30.6913 7.03243C30.695 7.03689 30.6998 7.03986 30.7043 7.04172" fill="#0D82CA"/>
<mask id="mask12_169278_694139" style="mask-type:luminance" maskUnits="userSpaceOnUse" x="11" y="6" width="16" height="23">
<path d="M11.9953 28.5037C18.1961 16.5551 21.1342 8.99219 26.3189 6.94689C20.9733 9.03949 14.9561 16.9313 11.9953 28.5037Z" fill="white"/>
</mask>
<g mask="url(#mask12_169278_694139)">
<mask id="mask13_169278_694139" style="mask-type:luminance" maskUnits="userSpaceOnUse" x="11" y="6" width="16" height="23">
<path d="M11.9879 6.96162H26.3119V28.5198H11.9879V6.96208V6.96162Z" fill="white"/>
</mask>
<g mask="url(#mask13_169278_694139)">
<mask id="mask14_169278_694139" style="mask-type:luminance" maskUnits="userSpaceOnUse" x="11" y="6" width="16" height="23">
<path d="M11.9879 28.5188V6.96203H26.3119V28.5188H11.9879Z" fill="white"/>
</mask>
<g mask="url(#mask14_169278_694139)">
<path d="M11.9879 6.96162H26.3119V28.5198H11.9879V6.96208V6.96162Z" fill="url(#paint4_linear_169278_694139)"/>
</g>
</g>
</g>
<path d="M32.2618 8.14771L31.9112 8.54099C32.106 8.86639 32.2871 9.22184 32.4678 9.60697L33.1519 9.10311C32.8714 8.75657 32.5754 8.43599 32.2618 8.14771Z" fill="#127BCA"/>
<mask id="mask15_169278_694139" style="mask-type:luminance" maskUnits="userSpaceOnUse" x="1" y="8" width="32" height="38">
<mask id="mask16_169278_694139" style="mask-type:luminance" maskUnits="userSpaceOnUse" x="-15" y="-5" width="64" height="65">
<path d="M-14.2494 -4.47661H48.653V59.2476H-14.2494V-4.47661Z" fill="white"/>
</mask>
<g mask="url(#mask16_169278_694139)">
<mask id="mask17_169278_694139" style="mask-type:luminance" maskUnits="userSpaceOnUse" x="-15" y="-5" width="65" height="65">
<path d="M-14.7132 -4.94032H49.1167V59.7114H-14.7132V-4.94032Z" fill="white"/>
</mask>
<g mask="url(#mask17_169278_694139)">
<mask id="mask18_169278_694139" style="mask-type:luminance" maskUnits="userSpaceOnUse" x="1" y="8" width="32" height="38">
<path d="M1.48317 45.8123H32.8805V8.83462H1.48317V45.8123Z" fill="white"/>
</mask>
<g mask="url(#mask18_169278_694139)">
<mask id="mask19_169278_694139" style="mask-type:luminance" maskUnits="userSpaceOnUse" x="-15" y="-5" width="64" height="65">
<path d="M-14.2494 -4.47661H48.653V59.2476H-14.2494V-4.47661Z" fill="white"/>
</mask>
<g mask="url(#mask19_169278_694139)">
<mask id="mask20_169278_694139" style="mask-type:luminance" maskUnits="userSpaceOnUse" x="1" y="8" width="32" height="38">
<path d="M1.48317 45.8123H32.8805V8.83462H1.48317V45.8123Z" fill="white"/>
</mask>
<g mask="url(#mask20_169278_694139)">
<mask id="mask21_169278_694139" style="mask-type:luminance" maskUnits="userSpaceOnUse" x="1" y="8" width="32" height="38">
<path d="M1.48967 37.4015L16.5191 45.8081L32.8908 17.2389L17.8627 8.82954L1.49384 37.4011L1.48967 37.4015Z" fill="white"/>
</mask>
<g mask="url(#mask21_169278_694139)">
<mask id="mask22_169278_694139" style="mask-type:luminance" maskUnits="userSpaceOnUse" x="-15" y="-5" width="64" height="65">
<path d="M48.653 17.7083L25.4201 59.252L-14.2494 37.0672L8.98305 -4.47639L48.653 17.7083Z" fill="white"/>
</mask>
<g mask="url(#mask22_169278_694139)">
<mask id="mask23_169278_694139" style="mask-type:luminance" maskUnits="userSpaceOnUse" x="-15" y="-5" width="64" height="65">
<path d="M48.653 17.7083L25.4205 59.252L-14.2494 37.0672L8.98305 -4.47639L48.653 17.7083Z" fill="white"/>
</mask>
<g mask="url(#mask23_169278_694139)">
<path d="M48.653 17.7083L25.4201 59.252L-14.2494 37.0672L8.98305 -4.47639L48.653 17.7083Z" fill="url(#paint5_linear_169278_694139)"/>
</g>
</g>
</g>
</g>
</g>
</g>
</g>
</g>
</mask>
<g mask="url(#mask15_169278_694139)">
<mask id="mask24_169278_694139" style="mask-type:luminance" maskUnits="userSpaceOnUse" x="14" y="18" width="14" height="18">
<path d="M14.3138 18.6367H27.6347V35.3145H14.3138V18.6321V18.6367Z" fill="white"/>
</mask>
<g mask="url(#mask24_169278_694139)">
<mask id="mask25_169278_694139" style="mask-type:luminance" maskUnits="userSpaceOnUse" x="14" y="18" width="14" height="18">
<path d="M14.3185 35.3145H27.6291V18.6321H14.3185V35.3145Z" fill="white"/>
</mask>
<g mask="url(#mask25_169278_694139)">
<mask id="mask26_169278_694139" style="mask-type:luminance" maskUnits="userSpaceOnUse" x="14" y="18" width="14" height="18">
<path d="M14.8105 35.2765L14.6983 35.2894C14.689 35.2913 14.6834 35.2913 14.6765 35.2927L14.581 35.302C14.5763 35.302 14.5703 35.3033 14.5656 35.3033L14.337 35.3196H14.3138C20.5898 35.1433 23.4587 32.0017 24.8812 27.4445L27.6314 18.6326C25.0027 22.3322 22.3619 26.7414 19.7067 31.6835C18.4267 34.065 16.4788 35.0599 14.8105 35.2718" fill="white"/>
</mask>
<g mask="url(#mask26_169278_694139)">
<mask id="mask27_169278_694139" style="mask-type:luminance" maskUnits="userSpaceOnUse" x="14" y="18" width="14" height="18">
<path d="M14.318 18.6377H27.6351V35.3201H14.318V18.6377Z" fill="white"/>
</mask>
<g mask="url(#mask27_169278_694139)">
<mask id="mask28_169278_694139" style="mask-type:luminance" maskUnits="userSpaceOnUse" x="14" y="18" width="14" height="18">
<path d="M14.3173 35.3208V18.6384H27.6344V35.3208H14.3173Z" fill="white"/>
</mask>
<g mask="url(#mask28_169278_694139)">
<path d="M14.318 18.6377H27.6351V35.3201H14.318V18.6377Z" fill="url(#paint6_linear_169278_694139)"/>
</g>
</g>
</g>
</g>
</g>
</g>
<mask id="mask29_169278_694139" style="mask-type:luminance" maskUnits="userSpaceOnUse" x="14" y="11" width="17" height="25">
<path d="M14.8105 35.274V35.2764C16.4792 35.064 18.4271 34.0705 19.7067 31.6881C22.3619 26.7487 25.0041 22.3367 27.6291 18.6371C28.5854 15.6374 29.3729 13.3421 30.1474 11.5959C24.9132 16.5779 19.6575 24.863 14.8105 35.274Z" fill="white"/>
</mask>
<g mask="url(#mask29_169278_694139)">
<mask id="mask30_169278_694139" style="mask-type:luminance" maskUnits="userSpaceOnUse" x="14" y="11" width="17" height="25">
<path d="M14.8439 11.6301H30.1804V35.311H14.8439V11.6301Z" fill="white"/>
</mask>
<g mask="url(#mask30_169278_694139)">
<mask id="mask31_169278_694139" style="mask-type:luminance" maskUnits="userSpaceOnUse" x="14" y="11" width="17" height="25">
<path d="M14.8439 35.311V11.6301H30.1804V35.311H14.8439Z" fill="white"/>
</mask>
<g mask="url(#mask31_169278_694139)">
<path d="M14.8439 11.6301H30.1804V35.311H14.8439V11.6301Z" fill="url(#paint7_linear_169278_694139)"/>
</g>
</g>
</g>
<path d="M11.9955 28.5042C10.8824 30.6431 9.67213 32.9224 8.32233 35.33L10.6884 35.3292C11.0012 32.9376 11.4449 30.6561 11.9955 28.5042Z" fill="#05A1E6"/>
<mask id="mask32_169278_694139" style="mask-type:luminance" maskUnits="userSpaceOnUse" x="10" y="6" width="22" height="30">
<path d="M28.3271 6.42985C28.3085 6.43357 28.2946 6.43449 28.2807 6.43588C28.2529 6.44145 28.2227 6.44654 28.1935 6.44886L28.1411 6.45442L28.0483 6.47066C28.0335 6.47159 28.0191 6.47437 28.0075 6.4753L27.8058 6.51101C27.7974 6.5124 27.7891 6.51472 27.7826 6.51472L27.6898 6.53328L27.6407 6.54719L27.5456 6.56574L27.5011 6.5764L27.1686 6.66267C27.1593 6.66638 27.144 6.66916 27.1301 6.67426C27.0976 6.68214 27.0651 6.69374 27.0299 6.70487L26.9844 6.7174L26.8847 6.74755C26.8727 6.75079 26.8615 6.75682 26.8499 6.75682L26.6194 6.83659L26.5081 6.87647L26.4636 6.89503C26.4302 6.9043 26.3959 6.91821 26.3708 6.9298C26.3602 6.93537 26.3467 6.94001 26.3384 6.94604C21.1532 8.99226 18.2156 16.5548 12.0148 28.5028C11.4418 30.7494 11.0052 33.0286 10.7074 35.3279H11.0399L14.1301 35.3232H14.1594L14.3565 35.3186L14.5851 35.3024C14.5897 35.3024 14.5958 35.301 14.599 35.301C14.6315 35.2963 14.664 35.294 14.6946 35.2917C14.7029 35.2903 14.7075 35.2903 14.7178 35.2885C14.7516 35.2852 14.792 35.281 14.83 35.2755V35.2731C19.6766 24.8621 24.9322 16.577 30.1665 11.595C30.7425 10.2904 31.3092 9.29465 31.9312 8.54099C31.5671 7.92601 31.1696 7.414 30.7253 7.04019C30.7207 7.03787 30.716 7.03647 30.7123 7.03184C30.6882 7.02163 30.6636 7.01005 30.6391 6.99706C30.615 6.98389 30.5905 6.97137 30.5658 6.9595C30.5426 6.95022 30.5166 6.93769 30.4944 6.92471C30.4653 6.9153 30.4373 6.90287 30.4109 6.88761C30.3877 6.88019 30.3677 6.86905 30.3459 6.85977C30.2995 6.84196 30.2536 6.82294 30.2082 6.80273L30.1498 6.77955C30.1151 6.76791 30.081 6.75444 30.0477 6.73919C30.0301 6.73456 30.0116 6.72714 29.9921 6.72157C29.9429 6.70534 29.8965 6.68771 29.8511 6.67241C29.8432 6.67009 29.8404 6.6701 29.8386 6.66778C29.7829 6.65062 29.7296 6.6367 29.6739 6.6214C29.6609 6.61537 29.6507 6.61305 29.6368 6.60934C29.5877 6.59635 29.5441 6.58243 29.4995 6.57037C29.4879 6.56898 29.4763 6.56574 29.4671 6.56295C29.3531 6.53303 29.238 6.50781 29.122 6.48736C29.1113 6.48643 29.0974 6.48273 29.0858 6.47994L28.9365 6.45675C28.9272 6.45211 28.9179 6.4521 28.9073 6.45025L28.7297 6.42707C28.7204 6.42567 28.7102 6.42336 28.6986 6.42336C28.6522 6.41594 28.6077 6.41269 28.5631 6.40851C28.4876 6.41408 28.4166 6.42103 28.3452 6.42799" fill="white"/>
</mask>
<g mask="url(#mask32_169278_694139)">
<mask id="mask33_169278_694139" style="mask-type:luminance" maskUnits="userSpaceOnUse" x="5" y="2" width="32" height="37">
<path d="M11.2658 38.9551L5.68042 7.27853L31.209 2.7775L36.7944 34.4541L11.2658 38.9556V38.9551Z" fill="white"/>
</mask>
<g mask="url(#mask33_169278_694139)">
<mask id="mask34_169278_694139" style="mask-type:luminance" maskUnits="userSpaceOnUse" x="5" y="2" width="32" height="37">
<path d="M11.2658 38.9548L5.68042 7.27826L31.2086 2.77676L36.794 34.4533L11.2653 38.9548H11.2658Z" fill="white"/>
</mask>
<g mask="url(#mask34_169278_694139)">
<path d="M11.2658 38.9551L5.68042 7.27853L31.209 2.7775L36.7944 34.4541L11.2658 38.9556V38.9551Z" fill="url(#paint8_linear_169278_694139)"/>
</g>
</g>
</g>
<mask id="mask35_169278_694139" style="mask-type:luminance" maskUnits="userSpaceOnUse" x="60" y="6" width="11" height="18">
<path d="M63.6105 13.5183L60.6108 23.0862C63.8851 18.581 67.1093 12.9153 70.1787 6.37458C66.5983 7.50019 64.6875 10.0737 63.6101 13.5178" fill="white"/>
</mask>
<g mask="url(#mask35_169278_694139)">
<mask id="mask36_169278_694139" style="mask-type:luminance" maskUnits="userSpaceOnUse" x="60" y="6" width="11" height="18">
<path d="M60.6288 6.37089H70.1967V23.082H60.6288V6.37089Z" fill="white"/>
</mask>
<g mask="url(#mask36_169278_694139)">
<mask id="mask37_169278_694139" style="mask-type:luminance" maskUnits="userSpaceOnUse" x="60" y="6" width="11" height="18">
<path d="M60.6288 23.082V6.37043H70.1967V23.082H60.6288Z" fill="white"/>
</mask>
<g mask="url(#mask37_169278_694139)">
<path d="M60.6288 6.37089H70.1967V23.082H60.6288V6.37089Z" fill="url(#paint9_linear_169278_694139)"/>
</g>
</g>
</g>
<mask id="mask38_169278_694139" style="mask-type:luminance" maskUnits="userSpaceOnUse" x="52" y="3" width="42" height="15">
<mask id="mask39_169278_694139" style="mask-type:luminance" maskUnits="userSpaceOnUse" x="52" y="3" width="42" height="15">
<path d="M52.0015 3.20879H93.508V17.678H52.0015V3.20879Z" fill="white"/>
</mask>
<g mask="url(#mask39_169278_694139)">
<mask id="mask40_169278_694139" style="mask-type:luminance" maskUnits="userSpaceOnUse" x="51" y="2" width="43" height="17">
<path d="M51.5488 2.74502H93.9713V18.1311H51.5488V2.74455V2.74502Z" fill="white"/>
</mask>
<g mask="url(#mask40_169278_694139)">
<mask id="mask41_169278_694139" style="mask-type:luminance" maskUnits="userSpaceOnUse" x="52" y="3" width="42" height="15">
<path d="M52.0015 17.678H93.5011V3.21899H52.0015V17.678Z" fill="white"/>
</mask>
<g mask="url(#mask41_169278_694139)">
<mask id="mask42_169278_694139" style="mask-type:luminance" maskUnits="userSpaceOnUse" x="52" y="3" width="42" height="15">
<path d="M52.0015 3.20879H93.508V17.678H52.0015V3.20879Z" fill="white"/>
</mask>
<g mask="url(#mask42_169278_694139)">
<mask id="mask43_169278_694139" style="mask-type:luminance" maskUnits="userSpaceOnUse" x="52" y="3" width="42" height="15">
<path d="M52.0015 17.678H93.5011V3.21899H52.0015V17.678Z" fill="white"/>
</mask>
<g mask="url(#mask43_169278_694139)">
<mask id="mask44_169278_694139" style="mask-type:luminance" maskUnits="userSpaceOnUse" x="52" y="3" width="42" height="15">
<path d="M52.0015 3.21899H93.4973V17.678H52.0015V3.21899Z" fill="white"/>
</mask>
<g mask="url(#mask44_169278_694139)">
<mask id="mask45_169278_694139" style="mask-type:luminance" maskUnits="userSpaceOnUse" x="52" y="3" width="42" height="15">
<path d="M93.5076 17.6672H52.0126V3.20825H93.5076V17.6672Z" fill="white"/>
</mask>
<g mask="url(#mask45_169278_694139)">
<mask id="mask46_169278_694139" style="mask-type:luminance" maskUnits="userSpaceOnUse" x="52" y="3" width="42" height="15">
<path d="M93.5076 3.20872V17.6672H52.0126V3.20825H93.5076V3.20872Z" fill="white"/>
</mask>
<g mask="url(#mask46_169278_694139)">
<path d="M93.5076 17.6672H52.0126V3.20825H93.5076V17.6672Z" fill="url(#paint10_linear_169278_694139)"/>
</g>
</g>
</g>
</g>
</g>
</g>
</g>
</g>
</mask>
<g mask="url(#mask38_169278_694139)">
<mask id="mask47_169278_694139" style="mask-type:luminance" maskUnits="userSpaceOnUse" x="55" y="2" width="28" height="35">
<path d="M55.3918 2.70272H82.616V36.8503H55.3918V2.70272Z" fill="white"/>
</mask>
<g mask="url(#mask47_169278_694139)">
<mask id="mask48_169278_694139" style="mask-type:luminance" maskUnits="userSpaceOnUse" x="60" y="5" width="18" height="29">
<path d="M60.2133 33.8821H77.8172V5.75439H60.2133V33.8821Z" fill="white"/>
</mask>
<g mask="url(#mask48_169278_694139)">
<mask id="mask49_169278_694139" style="mask-type:luminance" maskUnits="userSpaceOnUse" x="60" y="5" width="18" height="29">
<path d="M60.7146 33.6432L60.2156 33.8821C66.5834 31.0423 74.1793 19.7774 77.8163 5.75439H77.0742C68.7196 20.679 66.0324 30.669 60.7105 33.6432" fill="white"/>
</mask>
<g mask="url(#mask49_169278_694139)">
<mask id="mask50_169278_694139" style="mask-type:luminance" maskUnits="userSpaceOnUse" x="55" y="2" width="28" height="35">
<path d="M82.6118 6.56048L77.2709 36.8457L55.3918 32.9879L60.7327 2.70271L82.6118 6.56048Z" fill="white"/>
</mask>
<g mask="url(#mask50_169278_694139)">
<mask id="mask51_169278_694139" style="mask-type:luminance" maskUnits="userSpaceOnUse" x="55" y="2" width="28" height="35">
<path d="M82.6118 6.56048L77.2709 36.8457L55.3918 32.9879L60.7327 2.70271L82.6118 6.56048Z" fill="white"/>
</mask>
<g mask="url(#mask51_169278_694139)">
<path d="M82.6118 6.56048L77.2709 36.8457L55.3918 32.9879L60.7327 2.70271L82.6118 6.56048Z" fill="url(#paint11_linear_169278_694139)"/>
</g>
</g>
</g>
</g>
</g>
</g>
<path d="M56.5531 32.3902C57.9385 30.6983 59.0679 27.8236 60.607 23.0867C58.8305 25.528 57.0451 27.6251 55.2515 29.337C55.2493 29.3422 55.2493 29.3467 55.2456 29.3526C55.6363 30.5213 56.0648 31.5561 56.5531 32.3902Z" fill="#079AE1"/>
<path d="M56.5531 32.3903C56.0819 32.9665 55.5828 33.4032 55.0263 33.7282L54.6571 33.9267C55.2597 34.2527 55.9189 34.4604 56.5995 34.5389H56.6043L56.9215 34.5671H56.9416L57.09 34.5745H57.1107L57.2677 34.5767L57.4365 34.5745L57.4885 34.5708L57.6072 34.5671L57.6658 34.5597L57.7771 34.5523C57.7831 34.5523 57.7864 34.5523 57.7901 34.5485C57.8049 34.5485 57.8187 34.5463 57.8331 34.5463L57.9571 34.5333C57.9608 34.5333 57.9626 34.5318 57.9682 34.5318C57.9793 34.5293 57.9931 34.5274 58.0053 34.5259L58.1389 34.5066C58.1522 34.5066 58.1637 34.5029 58.1782 34.5011L58.3277 34.4766H58.3359C58.3396 34.474 58.3459 34.474 58.3492 34.4729L58.6472 34.4098C57.8257 34.113 57.1382 33.3987 56.5453 32.3892" fill="#1969BC"/>
<path d="M44.8175 34.5766C45.4224 34.5755 46.0259 34.5175 46.6199 34.4034C47.178 34.3002 47.7389 34.1455 48.3007 33.9492C48.7691 34.179 49.2648 34.3484 49.7759 34.4531C50.1781 34.5347 50.5922 34.577 51.0374 34.577H44.8175V34.5766Z" fill="#1E5CB3"/>
<path d="M51.0337 34.5765C52.5056 34.5765 53.6706 34.4033 54.6609 33.9272C55.2632 34.2537 55.9225 34.4615 56.6032 34.5395H56.608L56.9252 34.5676H56.9453L57.0937 34.5751H57.1145L57.2714 34.5773H51.0292L51.0337 34.5765Z" fill="#1E5CB3"/>
<path d="M57.2759 34.5765L57.4447 34.5743L57.4966 34.5706L57.6154 34.5669L57.6736 34.5594L57.7849 34.552C57.7909 34.552 57.7931 34.552 57.7979 34.5498C57.8127 34.5498 57.8265 34.5461 57.8424 34.5461L57.9649 34.5331C57.9686 34.5331 57.9704 34.5316 57.976 34.5316C57.9871 34.529 58.0012 34.5272 58.0131 34.5257L58.1467 34.506C58.16 34.5057 58.1732 34.5039 58.186 34.5005L58.3352 34.476H58.3426C58.3482 34.4734 58.3537 34.4734 58.3574 34.4723L58.6557 34.4092C58.9474 34.5164 59.2559 34.5705 59.5666 34.5687L57.2718 34.5747L57.2759 34.5765Z" fill="#1D60B5"/>
<path d="M55.2493 29.3531C55.2493 29.3505 55.2471 29.3472 55.2471 29.345L53.2806 31.0654L52.2547 31.8357L53.143 32.8004C53.6105 33.253 54.1076 33.6352 54.6568 33.9309L55.026 33.7324C55.5825 33.4074 56.0819 32.9703 56.5527 32.3945C56.0652 31.5596 55.6363 30.5263 55.2452 29.3572" fill="#175FAB"/>
<mask id="mask52_169278_694139" style="mask-type:luminance" maskUnits="userSpaceOnUse" x="56" y="5" width="22" height="30">
<path d="M74.7446 5.75453H71.6475C71.5431 5.75453 71.4411 5.75685 71.3391 5.75824L71.0478 5.7615H71.0408L70.4532 5.78932L70.1749 6.37462C67.1047 12.9149 63.8804 18.5815 60.607 23.0862C59.0673 27.8233 57.9384 30.6983 56.5536 32.3898C57.1463 33.3994 57.8336 34.1095 58.6545 34.4119C58.6786 34.404 58.6972 34.4007 58.7181 34.3966C58.7227 34.3933 58.7273 34.3933 58.732 34.3933C58.7459 34.391 58.7612 34.385 58.776 34.384C58.8099 34.3762 58.8456 34.3687 58.8781 34.3571L58.9402 34.3409C58.9703 34.3326 59.0033 34.3247 59.032 34.3177C59.0506 34.3094 59.0691 34.3052 59.0895 34.3006C59.1373 34.2853 59.18 34.2751 59.2259 34.2602C59.2463 34.2509 59.269 34.2435 59.2936 34.2379C59.3191 34.2287 59.346 34.2213 59.3692 34.2101C59.397 34.2018 59.4239 34.1962 59.448 34.1855C59.4694 34.18 59.4926 34.1702 59.513 34.161C59.5663 34.1424 59.6187 34.1262 59.6739 34.1053C59.6878 34.1007 59.7017 34.0923 59.717 34.0895C59.7495 34.0756 59.7834 34.0663 59.8098 34.0506C59.8228 34.0459 59.8367 34.0399 59.8562 34.0353C59.9718 33.9886 60.0865 33.9397 60.2003 33.8887C60.2012 33.8887 60.2073 33.8864 60.211 33.8841C60.3765 33.8108 60.543 33.7301 60.7086 33.6452C66.0319 30.6714 68.7191 20.6815 77.0738 5.75639H74.74L74.7446 5.75453Z" fill="white"/>
</mask>
<g mask="url(#mask52_169278_694139)">
<mask id="mask53_169278_694139" style="mask-type:luminance" maskUnits="userSpaceOnUse" x="56" y="5" width="22" height="30">
<path d="M77.0649 34.4146H56.5424V5.75258H77.0649V34.4146Z" fill="white"/>
</mask>
<g mask="url(#mask53_169278_694139)">
<mask id="mask54_169278_694139" style="mask-type:luminance" maskUnits="userSpaceOnUse" x="56" y="5" width="22" height="30">
<path d="M77.0649 5.75723V34.4192H56.5424V5.75723H77.0649Z" fill="white"/>
</mask>
<g mask="url(#mask54_169278_694139)">
<path d="M77.0649 34.4146H56.5424V5.75258H77.0649V34.4146Z" fill="url(#paint12_linear_169278_694139)"/>
</g>
</g>
</g>
<mask id="mask55_169278_694139" style="mask-type:luminance" maskUnits="userSpaceOnUse" x="22" y="5" width="19" height="5">
<mask id="mask56_169278_694139" style="mask-type:luminance" maskUnits="userSpaceOnUse" x="22" y="5" width="19" height="5">
<path d="M22.514 5.2202H40.1314V9.28296H22.514V5.2202Z" fill="white"/>
</mask>
<g mask="url(#mask56_169278_694139)">
<mask id="mask57_169278_694139" style="mask-type:luminance" maskUnits="userSpaceOnUse" x="22" y="4" width="19" height="6">
<path d="M22.0502 4.76021H40.5905V9.74683H22.0502V4.76021Z" fill="white"/>
</mask>
<g mask="url(#mask57_169278_694139)">
<mask id="mask58_169278_694139" style="mask-type:luminance" maskUnits="userSpaceOnUse" x="22" y="5" width="19" height="5">
<path d="M22.515 9.27979H40.1295V5.22027H22.515V9.27979Z" fill="white"/>
</mask>
<g mask="url(#mask58_169278_694139)">
<mask id="mask59_169278_694139" style="mask-type:luminance" maskUnits="userSpaceOnUse" x="22" y="5" width="19" height="5">
<path d="M22.514 5.2202H40.1314V9.28296H22.514V5.2202Z" fill="white"/>
</mask>
<g mask="url(#mask59_169278_694139)">
<mask id="mask60_169278_694139" style="mask-type:luminance" maskUnits="userSpaceOnUse" x="22" y="5" width="19" height="5">
<path d="M22.515 9.27979H40.1295V5.22027H22.515V9.27979Z" fill="white"/>
</mask>
<g mask="url(#mask60_169278_694139)">
<mask id="mask61_169278_694139" style="mask-type:luminance" maskUnits="userSpaceOnUse" x="22" y="5" width="19" height="5">
<path d="M40.1314 9.27979H22.5187V5.22027H40.1314V9.27979Z" fill="white"/>
</mask>
<g mask="url(#mask61_169278_694139)">
<mask id="mask62_169278_694139" style="mask-type:luminance" maskUnits="userSpaceOnUse" x="22" y="5" width="19" height="5">
<path d="M22.514 5.22393H40.1268V9.28345H22.514V5.22393Z" fill="white"/>
</mask>
<g mask="url(#mask62_169278_694139)">
<mask id="mask63_169278_694139" style="mask-type:luminance" maskUnits="userSpaceOnUse" x="22" y="5" width="19" height="5">
<path d="M22.514 9.28271V5.22367H40.1268V9.28271H22.514Z" fill="white"/>
</mask>
<g mask="url(#mask63_169278_694139)">
<path d="M22.514 5.22393H40.1268V9.28345H22.514V5.22393Z" fill="url(#paint13_linear_169278_694139)"/>
</g>
</g>
</g>
</g>
</g>
</g>
</g>
</g>
</mask>
<g mask="url(#mask55_169278_694139)">
<mask id="mask64_169278_694139" style="mask-type:luminance" maskUnits="userSpaceOnUse" x="27" y="3" width="15" height="9">
<path d="M27.4496 3.03488H41.4003V11.4609H27.4496V3.03488Z" fill="white"/>
</mask>
<g mask="url(#mask64_169278_694139)">
<mask id="mask65_169278_694139" style="mask-type:luminance" maskUnits="userSpaceOnUse" x="27" y="6" width="14" height="4">
<path d="M27.8972 9.10303H40.5803V6.37783H27.8972V9.10303Z" fill="white"/>
</mask>
<g mask="url(#mask65_169278_694139)">
<path d="M28.5404 6.41036L28.5794 6.415C28.6117 6.41637 28.644 6.41993 28.6758 6.42567C28.6874 6.42567 28.6976 6.42799 28.7069 6.42938L28.8846 6.45256C28.8948 6.45488 28.9045 6.45488 28.9138 6.45813L29.0631 6.48271C29.0752 6.48651 29.0876 6.48899 29.1002 6.49013L29.4443 6.56574L29.4759 6.57315L29.615 6.6121C29.6289 6.61581 29.6396 6.61813 29.6521 6.62416L29.8168 6.67054C29.8186 6.67333 29.8214 6.67333 29.8279 6.67519L29.967 6.72434L30.0227 6.7429L30.1247 6.78928C30.1433 6.79392 30.1632 6.80134 30.1832 6.80922L30.3195 6.86626L30.3858 6.89502L30.4693 6.93026C30.4925 6.94325 30.5189 6.95439 30.5417 6.96505L30.6149 7.00215C31.2077 7.29341 31.7535 7.68021 32.2581 8.15234C32.4391 7.96193 32.6336 7.78492 32.8402 7.6227C31.7364 6.84029 30.4842 6.39367 29.0409 6.39367C28.8726 6.39319 28.7044 6.4003 28.5367 6.415" fill="#7DCBEC"/>
<path d="M32.2623 8.14763C32.5716 8.4361 32.868 8.75658 33.1435 9.10303L33.9533 8.56318C33.5999 8.20978 33.2265 7.89255 32.8392 7.61799C32.638 7.77567 32.4441 7.95191 32.2572 8.14763" fill="#5EC5ED"/>
<mask id="mask66_169278_694139" style="mask-type:luminance" maskUnits="userSpaceOnUse" x="27" y="6" width="11" height="2">
<path d="M28.5404 6.41022L29.0445 6.38889C30.4879 6.38889 31.7345 6.83551 32.8439 7.61792C34.0103 6.69962 35.4193 6.37777 37.3765 6.37777H27.8981C28.1161 6.37777 28.3303 6.38981 28.5404 6.41022Z" fill="white"/>
</mask>
<g mask="url(#mask66_169278_694139)">
<mask id="mask67_169278_694139" style="mask-type:luminance" maskUnits="userSpaceOnUse" x="27" y="3" width="11" height="8">
<path d="M29.2802 3.03487L37.8069 6.57124L35.9763 10.9846L27.4496 7.44779L29.2802 3.03487Z" fill="white"/>
</mask>
<g mask="url(#mask67_169278_694139)">
<mask id="mask68_169278_694139" style="mask-type:luminance" maskUnits="userSpaceOnUse" x="27" y="3" width="11" height="8">
<path d="M29.2802 3.03514L37.8069 6.57197L35.9763 10.9854L27.4496 7.44852L29.2802 3.03514Z" fill="white"/>
</mask>
<g mask="url(#mask68_169278_694139)">
<path d="M29.2802 3.03487L37.8069 6.57124L35.9763 10.9846L27.4496 7.44779L29.2802 3.03487Z" fill="url(#paint14_linear_169278_694139)"/>
</g>
</g>
</g>
<mask id="mask69_169278_694139" style="mask-type:luminance" maskUnits="userSpaceOnUse" x="32" y="6" width="9" height="3">
<path d="M37.3769 6.37789C35.4197 6.37789 34.0108 6.69928 32.8443 7.61804C33.2316 7.8926 33.6049 8.20983 33.9583 8.56323C35.5802 7.53085 37.1877 6.84815 38.7724 6.5504C39.3777 6.43631 39.9811 6.37881 40.5756 6.37881H37.3769V6.37789Z" fill="white"/>
</mask>
<g mask="url(#mask69_169278_694139)">
<mask id="mask70_169278_694139" style="mask-type:luminance" maskUnits="userSpaceOnUse" x="32" y="3" width="10" height="9">
<path d="M32.0258 6.73586L39.2608 3.45691L41.4007 8.17686L34.1657 11.4558L32.0258 6.73586Z" fill="white"/>
</mask>
<g mask="url(#mask70_169278_694139)">
<mask id="mask71_169278_694139" style="mask-type:luminance" maskUnits="userSpaceOnUse" x="32" y="3" width="10" height="9">
<path d="M32.0258 6.73586L39.2608 3.45597L41.4003 8.17592L34.1652 11.4558L32.0258 6.73586Z" fill="white"/>
</mask>
<g mask="url(#mask71_169278_694139)">
<path d="M32.0258 6.73586L39.2608 3.45691L41.4007 8.17686L34.1657 11.4558L32.0258 6.73586Z" fill="url(#paint15_linear_169278_694139)"/>
</g>
</g>
</g>
</g>
</g>
</g>
<mask id="mask72_169278_694139" style="mask-type:luminance" maskUnits="userSpaceOnUse" x="42" y="7" width="42" height="24">
<mask id="mask73_169278_694139" style="mask-type:luminance" maskUnits="userSpaceOnUse" x="42" y="7" width="42" height="24">
<path d="M42.4475 7.95891H83.9564V30.7461H42.4475V7.95891Z" fill="white"/>
</mask>
<g mask="url(#mask73_169278_694139)">
<mask id="mask74_169278_694139" style="mask-type:luminance" maskUnits="userSpaceOnUse" x="41" y="7" width="44" height="25">
<path d="M41.9986 7.51236H84.4211V31.21H41.9986V7.51236Z" fill="white"/>
</mask>
<g mask="url(#mask74_169278_694139)">
<mask id="mask75_169278_694139" style="mask-type:luminance" maskUnits="userSpaceOnUse" x="42" y="7" width="42" height="24">
<path d="M42.4475 30.729H83.948V7.95898H42.4475V30.729Z" fill="white"/>
</mask>
<g mask="url(#mask75_169278_694139)">
<mask id="mask76_169278_694139" style="mask-type:luminance" maskUnits="userSpaceOnUse" x="42" y="7" width="42" height="24">
<path d="M42.4475 7.95891H83.9564V30.7461H42.4475V7.95891Z" fill="white"/>
</mask>
<g mask="url(#mask76_169278_694139)">
<mask id="mask77_169278_694139" style="mask-type:luminance" maskUnits="userSpaceOnUse" x="42" y="7" width="42" height="24">
<path d="M42.4475 30.729H83.948V7.95898H42.4475V30.729Z" fill="white"/>
</mask>
<g mask="url(#mask77_169278_694139)">
<mask id="mask78_169278_694139" style="mask-type:luminance" maskUnits="userSpaceOnUse" x="42" y="7" width="42" height="24">
<path d="M83.9457 30.729H42.4508V7.95898H83.9457V30.729Z" fill="white"/>
</mask>
<g mask="url(#mask78_169278_694139)">
<mask id="mask79_169278_694139" style="mask-type:luminance" maskUnits="userSpaceOnUse" x="42" y="7" width="42" height="24">
<path d="M42.4624 7.97606H83.9573V30.7461H42.4624V7.97653V7.97606Z" fill="white"/>
</mask>
<g mask="url(#mask79_169278_694139)">
<mask id="mask80_169278_694139" style="mask-type:luminance" maskUnits="userSpaceOnUse" x="42" y="7" width="42" height="24">
<path d="M42.4633 30.7461V7.97653H83.9582V30.7461H42.4633Z" fill="white"/>
</mask>
<g mask="url(#mask80_169278_694139)">
<path d="M42.4624 7.97606H83.9573V30.7461H42.4624V7.97653V7.97606Z" fill="url(#paint16_linear_169278_694139)"/>
</g>
</g>
</g>
</g>
</g>
</g>
</g>
</g>
</mask>
<g mask="url(#mask72_169278_694139)">
<mask id="mask81_169278_694139" style="mask-type:luminance" maskUnits="userSpaceOnUse" x="55" y="5" width="16" height="25">
<path d="M55.2568 5.78286H70.5191V29.3372H55.2568V5.78286Z" fill="white"/>
</mask>
<g mask="url(#mask81_169278_694139)">
<mask id="mask82_169278_694139" style="mask-type:luminance" maskUnits="userSpaceOnUse" x="55" y="5" width="16" height="25">
<path d="M55.2578 29.3372H70.4482V5.78982H55.2578V29.3372Z" fill="white"/>
</mask>
<g mask="url(#mask82_169278_694139)">
<mask id="mask83_169278_694139" style="mask-type:luminance" maskUnits="userSpaceOnUse" x="55" y="5" width="16" height="25">
<path d="M60.6066 23.089L63.6087 13.5184C64.6847 10.0734 66.5922 7.4998 70.175 6.37512L70.45 5.78982C64.6063 6.13906 61.8825 9.11053 60.5088 13.5081C58.1073 21.1875 56.6529 26.1658 55.2527 29.3372C57.0415 27.6267 58.8294 25.5276 60.6066 23.089Z" fill="white"/>
</mask>
<g mask="url(#mask83_169278_694139)">
<mask id="mask84_169278_694139" style="mask-type:luminance" maskUnits="userSpaceOnUse" x="55" y="5" width="16" height="25">
<path d="M70.5191 29.3301H55.3209V5.78274H70.5191V29.3301Z" fill="white"/>
</mask>
<g mask="url(#mask84_169278_694139)">
<mask id="mask85_169278_694139" style="mask-type:luminance" maskUnits="userSpaceOnUse" x="55" y="5" width="16" height="25">
<path d="M70.5191 5.78294V29.3293H55.3209V5.78294H70.5191Z" fill="white"/>
</mask>
<g mask="url(#mask85_169278_694139)">
<path d="M70.5191 29.3301H55.3209V5.78274H70.5191V29.3301Z" fill="url(#paint17_linear_169278_694139)"/>
</g>
</g>
</g>
</g>
</g>
</g>
<path d="M69.3677 34.1252L69.2771 34.3541H69.2682C69.2553 34.3033 69.2311 34.228 69.1844 34.13L68.6137 32.8314H68.3258V34.6929H68.5336V33.4462L68.5243 33.0815H68.5288C68.5488 33.1705 68.5677 33.2347 68.5856 33.2744L69.2219 34.6936H69.328L69.9617 33.2637C69.9791 33.2266 69.9973 33.1672 70.0199 33.0781H70.0237L70.0066 33.4395V34.6899H70.2236V32.8284H69.9491L69.3666 34.1226L69.3677 34.1252ZM66.7419 33.0292H67.2784V34.6929H67.501V33.0292H68.0353V32.831H66.7441V33.0292H66.7419ZM80.2674 32.0126C80.0727 32.0091 79.8795 32.0466 79.7002 32.1225C79.521 32.1984 79.3596 32.3111 79.2267 32.4533C78.9417 32.7483 78.8 33.1026 78.8 33.5219C78.8 33.93 78.941 34.2844 79.2267 34.583C79.5123 34.8817 79.8589 35.0309 80.2674 35.0309C80.4668 35.0341 80.6648 34.996 80.8488 34.919C81.0328 34.8419 81.1988 34.7275 81.3363 34.583C81.6309 34.2847 81.7816 33.9311 81.7816 33.5219C81.7816 33.1127 81.635 32.7576 81.3363 32.4593C81.1989 32.3146 81.0329 32.2002 80.8489 32.1233C80.6649 32.0464 80.4668 32.0087 80.2674 32.0126ZM116.967 17.6018H122.494V34.7225H124.738V17.6018H130.254V15.5723H116.971V17.6018H116.967ZM106.95 26.0019H113.866V23.9724H106.95V17.6018H114.415V15.5723H104.713V34.7225H114.862V32.693H106.959V26.0015L106.95 26.0019ZM98.2356 29.0606L98.3702 31.8756H98.3183C98.1847 31.6159 97.925 31.1922 97.5391 30.5956L87.9518 15.5689H85.0481V34.7192H87.2928V20.8906L87.186 18.2611H87.2676C87.4364 18.6971 87.636 19.0967 87.8668 19.4633L97.7499 34.7274H100.473V15.5771H98.2471V29.0651L98.2356 29.0606ZM124.755 11.7429C124.755 12.7684 125.209 13.2815 126.12 13.2815C126.445 13.2815 126.706 13.2259 126.905 13.1127V12.4003C126.752 12.5128 126.572 12.5692 126.365 12.5692C126.086 12.5692 125.889 12.495 125.768 12.3458C125.649 12.1974 125.591 11.9503 125.591 11.6037V8.66149H126.904V7.95394H125.591V6.41046L124.754 6.68131V7.95394H123.859V8.66149H124.754V11.747L124.755 11.7429ZM121.341 13.1658H122.176V8.65778H123.399V7.95022H122.176V7.14658C122.176 6.40972 122.466 6.04091 123.051 6.04091C123.245 6.03797 123.436 6.08526 123.606 6.17819V5.42427C123.46 5.3649 123.258 5.33374 123.001 5.33374C122.556 5.33374 122.185 5.47361 121.875 5.75671C121.517 6.08136 121.341 6.53587 121.341 7.10503V7.95097H120.451V8.65853H121.341V13.1665V13.1658ZM115.649 10.5871C115.649 9.92151 115.812 9.40874 116.141 9.04514C116.454 8.70565 116.87 8.53571 117.389 8.53571C117.915 8.53571 118.325 8.70341 118.617 9.03957C118.919 9.38982 119.069 9.89887 119.069 10.5675C119.069 11.2056 118.928 11.6969 118.646 12.0449C118.358 12.4011 117.939 12.5792 117.39 12.5792C116.86 12.5792 116.437 12.4033 116.119 12.0516C115.806 11.7013 115.649 11.2116 115.649 10.5875M119.222 12.5376C119.69 12.0367 119.927 11.3689 119.927 10.5341C119.927 9.68924 119.707 9.02399 119.272 8.54165C118.834 8.06154 118.228 7.81963 117.454 7.81963C116.662 7.81963 116.03 8.05151 115.559 8.51159C115.051 9.00877 114.795 9.70853 114.795 10.6153C114.795 11.4108 115.02 12.0505 115.468 12.5347C115.925 13.037 116.544 13.2878 117.332 13.2878C118.126 13.2878 118.758 13.0363 119.226 12.5347M113.492 12.83C113.646 12.6998 113.769 12.5369 113.852 12.3531C113.935 12.1693 113.975 11.9693 113.971 11.7677C113.971 11.3796 113.843 11.0606 113.588 10.8105C113.392 10.612 113.071 10.4187 112.625 10.2332C112.229 10.0644 111.965 9.9189 111.846 9.79906C111.707 9.67106 111.637 9.49111 111.637 9.26108C111.635 9.15996 111.656 9.05977 111.7 8.96849C111.743 8.87721 111.808 8.79738 111.888 8.73533C112.053 8.60065 112.275 8.53312 112.555 8.53312C113.002 8.53312 113.395 8.6563 113.743 8.90489V8.06376C113.414 7.90051 113.043 7.81963 112.628 7.81963C112.087 7.81963 111.646 7.96247 111.303 8.2515C110.96 8.54053 110.789 8.89895 110.789 9.32748C110.789 9.71447 110.9 10.0324 111.121 10.2699C111.304 10.474 111.615 10.6695 112.048 10.8613C112.472 11.0476 112.758 11.2064 112.904 11.3437C113.05 11.4809 113.124 11.6405 113.124 11.8475C113.124 12.3328 112.793 12.5766 112.131 12.5766C111.636 12.5766 111.185 12.4096 110.775 12.0772V12.9751C111.146 13.1851 111.575 13.289 112.074 13.289C112.676 13.289 113.155 13.1406 113.504 12.8307M106.061 9.04625C106.372 8.70675 106.788 8.53683 107.307 8.53683C107.834 8.53683 108.242 8.70453 108.532 9.04069C108.828 9.39094 108.984 9.89998 108.984 10.5686C108.984 11.2067 108.843 11.698 108.561 12.046C108.273 12.4022 107.856 12.5803 107.305 12.5803C106.774 12.5803 106.351 12.4044 106.037 12.0527C105.721 11.7024 105.564 11.2127 105.564 10.5886C105.564 9.92299 105.729 9.41023 106.058 9.04662M107.243 13.2927C108.037 13.2927 108.668 13.0411 109.135 12.5395C109.602 12.0379 109.84 11.3707 109.84 10.5359C109.84 9.6911 109.617 9.02584 109.187 8.5435C108.749 8.06339 108.142 7.82148 107.364 7.82148C106.573 7.82148 105.943 8.05337 105.471 8.51345C104.961 9.01063 104.707 9.71039 104.707 10.6172C104.707 11.4127 104.932 12.0523 105.375 12.5365C105.832 13.0389 106.451 13.2897 107.239 13.2897M103.021 8.13834C102.767 8.34612 102.578 8.63812 102.455 9.01991H102.434V7.94392H101.6V13.1606H102.434V10.5003C102.434 9.89553 102.564 9.42247 102.828 9.07926C103.059 8.77428 103.347 8.62216 103.683 8.62216C103.962 8.62216 104.173 8.6767 104.321 8.78913V7.92314C104.208 7.87639 104.043 7.84894 103.821 7.84894C103.525 7.84894 103.258 7.94393 103.021 8.13389M98.9082 13.2812C99.4596 13.2812 99.9367 13.1595 100.337 12.9101V12.1161C99.936 12.4152 99.51 12.5614 99.0529 12.5614C98.5131 12.5614 98.0883 12.3851 97.7632 12.0319C97.4382 11.6787 97.2809 11.1978 97.2809 10.5905C97.2809 9.95898 97.4583 9.45253 97.8063 9.07408C98.1413 8.70379 98.5732 8.51827 99.1049 8.51827C99.5501 8.51827 99.959 8.65333 100.348 8.9264V8.07304C99.9972 7.89792 99.5946 7.80812 99.1412 7.80812C98.3127 7.80812 97.6571 8.06785 97.1637 8.5973C96.6717 9.12342 96.4268 9.81428 96.4268 10.6688C96.4268 11.4301 96.6516 12.0527 97.0946 12.5332C97.5547 13.0289 98.1558 13.2767 98.9042 13.2767M94.2949 13.1513H95.1278V7.93464H94.2949V13.1513ZM94.7215 6.61156C94.8744 6.61156 95.005 6.5585 95.1111 6.45276C95.2172 6.34702 95.2718 6.21901 95.2718 6.06578C95.2729 5.99415 95.2593 5.92306 95.2316 5.85697C95.204 5.79089 95.1629 5.73123 95.1111 5.68176C95.0601 5.63102 94.9992 5.59113 94.9324 5.56448C94.8655 5.53783 94.7939 5.52496 94.7219 5.52667C94.5735 5.52667 94.4437 5.5775 94.3368 5.68176C94.2851 5.73125 94.2443 5.79095 94.217 5.85706C94.1897 5.92317 94.1764 5.99425 94.178 6.06578C94.178 6.22643 94.2314 6.35629 94.3368 6.45832C94.4422 6.56035 94.5728 6.61156 94.7219 6.61156M85.8677 8.25633L85.828 6.83158H85.8465C85.9208 7.17441 85.995 7.42522 86.064 7.58105L88.5603 13.1524H88.978L91.4691 7.54024C91.5337 7.39369 91.6075 7.15809 91.6873 6.83529H91.7073L91.6361 8.25077V13.1558H92.4894V5.85206H91.4135L89.1253 10.924C89.0363 11.1207 88.9213 11.4197 88.7751 11.8193H88.7395C88.6868 11.6204 88.5773 11.3288 88.4078 10.9452L86.1667 5.85169H85.0362V13.1554H85.8621V8.26004L85.8677 8.25633ZM128.011 7.35621C128.245 7.12098 128.538 7.00373 128.891 7.00373C129.052 7.00045 129.212 7.02973 129.361 7.08979C129.51 7.14985 129.646 7.23946 129.76 7.35325C129.996 7.58699 130.115 7.8801 130.115 8.22887C130.115 8.57764 129.996 8.87372 129.757 9.10636C129.519 9.34382 129.229 9.46106 128.89 9.46106C128.549 9.46106 128.258 9.3453 128.022 9.11081C127.783 8.87632 127.661 8.58023 127.661 8.22887C127.661 7.88381 127.778 7.59219 128.01 7.35584M128.883 9.60168C129.278 9.60168 129.609 9.46811 129.878 9.20394C130.147 8.93977 130.286 8.61214 130.286 8.22071C130.286 7.82296 130.151 7.49349 129.879 7.23377C129.615 6.97998 129.288 6.85161 128.898 6.85161C128.501 6.85161 128.169 6.98519 127.902 7.25233C127.772 7.37993 127.669 7.53282 127.6 7.7016C127.531 7.87037 127.498 8.05145 127.502 8.23369C127.502 8.62958 127.631 8.95609 127.895 9.21581C128.157 9.47293 128.488 9.60279 128.887 9.60279M128.595 7.53987H128.815C128.964 7.53987 129.077 7.56585 129.14 7.61408C129.198 7.66231 129.226 7.73354 129.226 7.83521C129.226 8.03742 129.105 8.13834 128.86 8.13834H128.595V7.53616V7.53987ZM128.595 8.35317H128.758C128.872 8.35317 128.98 8.45854 129.073 8.67225L129.266 9.09523H129.563L129.331 8.62476C129.235 8.43034 129.136 8.32163 129.034 8.29826V8.29083C129.175 8.26115 129.287 8.20327 129.368 8.11719C129.45 8.03111 129.487 7.92983 129.487 7.80776C129.489 7.74487 129.477 7.68232 129.452 7.62459C129.427 7.56686 129.389 7.51537 129.342 7.47382C129.228 7.37365 129.062 7.32542 128.84 7.32542H128.343V9.09337H128.592V8.35131L128.595 8.35317Z" fill="#231F20"/>
</g>
<defs>
<linearGradient id="paint0_linear_169278_694139" x1="2445.51" y1="-9800.59" x2="2445.51" y2="-7986.5" gradientUnits="userSpaceOnUse">
<stop stop-color="#0994DC"/>
<stop offset="0.11" stop-color="#0994DC"/>
<stop offset="0.35" stop-color="#66CEF5"/>
<stop offset="0.45" stop-color="#66CEF5"/>
<stop offset="0.846" stop-color="#127BCA"/>
<stop offset="1" stop-color="#127BCA"/>
</linearGradient>
<linearGradient id="paint1_linear_169278_694139" x1="2609.04" y1="-10097" x2="2609.04" y2="-8189.29" gradientUnits="userSpaceOnUse">
<stop stop-color="#0E76BC"/>
<stop offset="0.176" stop-color="#0E76BC"/>
<stop offset="0.36" stop-color="#36AEE8"/>
<stop offset="0.52" stop-color="#36AEE8"/>
<stop offset="0.846" stop-color="#00ADEF"/>
<stop offset="1" stop-color="#00ADEF"/>
</linearGradient>
<linearGradient id="paint2_linear_169278_694139" x1="2613.88" y1="-10687.9" x2="2613.88" y2="-8631.4" gradientUnits="userSpaceOnUse">
<stop stop-color="#166AB8"/>
<stop offset="0.099" stop-color="#166AB8"/>
<stop offset="0.4" stop-color="#36AEE8"/>
<stop offset="0.516" stop-color="#36AEE8"/>
<stop offset="0.846" stop-color="#0798DD"/>
<stop offset="1" stop-color="#0798DD"/>
</linearGradient>
<linearGradient id="paint3_linear_169278_694139" x1="3261.01" y1="-11354.8" x2="3261.01" y2="-9029.45" gradientUnits="userSpaceOnUse">
<stop stop-color="#124379"/>
<stop offset="0.11" stop-color="#124379"/>
<stop offset="0.39" stop-color="#1487CB"/>
<stop offset="0.52" stop-color="#1487CB"/>
<stop offset="0.78" stop-color="#165197"/>
<stop offset="1" stop-color="#165197"/>
</linearGradient>
<linearGradient id="paint4_linear_169278_694139" x1="1964.54" y1="-7617.08" x2="1964.54" y2="-8957.2" gradientUnits="userSpaceOnUse">
<stop stop-color="#318ED5"/>
<stop offset="0.675" stop-color="#38A7E4"/>
<stop offset="1" stop-color="#38A7E4"/>
</linearGradient>
<linearGradient id="paint5_linear_169278_694139" x1="9193.08" y1="-25043.3" x2="5458.07" y2="-18451.2" gradientUnits="userSpaceOnUse">
<stop stop-color="#231F20"/>
<stop offset="0.129" stop-color="white"/>
<stop offset="0.4" stop-color="white"/>
<stop offset="1" stop-color="white"/>
</linearGradient>
<linearGradient id="paint6_linear_169278_694139" x1="1882.05" y1="-5877.97" x2="1882.05" y2="-6886" gradientUnits="userSpaceOnUse">
<stop stop-color="#05A1E6"/>
<stop offset="1" stop-color="#05A1E6"/>
</linearGradient>
<linearGradient id="paint7_linear_169278_694139" x1="2216.59" y1="-8283.96" x2="2216.59" y2="-9493.1" gradientUnits="userSpaceOnUse">
<stop stop-color="#1959A6"/>
<stop offset="0.154" stop-color="#1959A6"/>
<stop offset="0.484" stop-color="#05A1E6"/>
<stop offset="0.5" stop-color="#05A1E6"/>
<stop offset="0.918" stop-color="#7EC5EA"/>
<stop offset="1" stop-color="#7EC5EA"/>
</linearGradient>
<linearGradient id="paint8_linear_169278_694139" x1="4526.95" y1="-12791.6" x2="4120.57" y2="-14773.5" gradientUnits="userSpaceOnUse">
<stop stop-color="#165096"/>
<stop offset="0.104" stop-color="#165096"/>
<stop offset="1" stop-color="#0D82CA"/>
</linearGradient>
<linearGradient id="paint9_linear_169278_694139" x1="2319.26" y1="-6426.8" x2="2319.26" y2="-6910.3" gradientUnits="userSpaceOnUse">
<stop stop-color="#05A1E6"/>
<stop offset="0.649" stop-color="#05A1E6"/>
<stop offset="0.874" stop-color="#0495D6"/>
<stop offset="1" stop-color="#0495D6"/>
</linearGradient>
<linearGradient id="paint10_linear_169278_694139" x1="10504.8" y1="-6062.7" x2="10504.8" y2="-5611.92" gradientUnits="userSpaceOnUse">
<stop stop-color="#231F20"/>
<stop offset="1" stop-color="white"/>
</linearGradient>
<linearGradient id="paint11_linear_169278_694139" x1="6849.36" y1="-14223" x2="6354.11" y2="-11983.8" gradientUnits="userSpaceOnUse">
<stop stop-color="#38A7E4"/>
<stop offset="0.357" stop-color="#38A7E4"/>
<stop offset="0.962" stop-color="#0E88D3"/>
<stop offset="1" stop-color="#0E88D3"/>
</linearGradient>
<linearGradient id="paint12_linear_169278_694139" x1="4962.72" y1="-11866.4" x2="4962.72" y2="-10057.3" gradientUnits="userSpaceOnUse">
<stop stop-color="#168CD4"/>
<stop offset="0.5" stop-color="#1C87CC"/>
<stop offset="1" stop-color="#154B8D"/>
</linearGradient>
<linearGradient id="paint13_linear_169278_694139" x1="2885.55" y1="-1644.68" x2="2885.55" y2="-1680.21" gradientUnits="userSpaceOnUse">
<stop stop-color="white"/>
<stop offset="0.363" stop-color="white"/>
<stop offset="1" stop-color="#918F90"/>
</linearGradient>
<linearGradient id="paint14_linear_169278_694139" x1="1669.73" y1="-3300.1" x2="1806.33" y2="-3226.28" gradientUnits="userSpaceOnUse">
<stop stop-color="#97D6EE"/>
<stop offset="0.703" stop-color="#55C1EA"/>
<stop offset="1" stop-color="#55C1EA"/>
</linearGradient>
<linearGradient id="paint15_linear_169278_694139" x1="1597.61" y1="-3262.55" x2="1698.82" y2="-3316.32" gradientUnits="userSpaceOnUse">
<stop stop-color="#7ACCEC"/>
<stop offset="0.335" stop-color="#7ACCEC"/>
<stop offset="0.841" stop-color="#3FB7ED"/>
<stop offset="1" stop-color="#3FB7ED"/>
</linearGradient>
<linearGradient id="paint16_linear_169278_694139" x1="9640.78" y1="-8192.65" x2="9640.78" y2="-9310.59" gradientUnits="userSpaceOnUse">
<stop stop-color="#231F20"/>
<stop offset="1" stop-color="white"/>
</linearGradient>
<linearGradient id="paint17_linear_169278_694139" x1="3561.38" y1="-9666.14" x2="3561.38" y2="-8212.4" gradientUnits="userSpaceOnUse">
<stop stop-color="#1DA7E7"/>
<stop offset="1" stop-color="#37ABE7"/>
</linearGradient>
<clipPath id="clip0_169278_694139">
<rect width="136" height="40" fill="white" transform="translate(0.84436)"/>
</clipPath>
</defs>
</svg>
