<svg width="38" height="40" viewBox="0 0 38 40" fill="none" xmlns="http://www.w3.org/2000/svg">
<g clip-path="url(#clip0_169278_694133)">
<path d="M13.6739 8.67693C8.47466 7.73 4.36375 8.72134 2.72539 11.5588C1.5028 13.6761 1.85181 16.4839 3.57242 19.4851C3.60723 19.5459 3.65368 19.5992 3.70911 19.6421C3.76455 19.6849 3.82788 19.7164 3.89549 19.7347C3.9631 19.7531 4.03367 19.7579 4.10315 19.7489C4.17263 19.74 4.23967 19.7174 4.30043 19.6826C4.42313 19.6122 4.51286 19.4959 4.5499 19.3594C4.58693 19.2229 4.56823 19.0772 4.49792 18.9545C2.94785 16.2513 2.64576 13.8282 3.64891 12.0919C5.00973 9.73473 8.67613 8.8505 13.4824 9.72605C13.5693 9.74322 13.6591 9.73849 13.7437 9.71229C13.8283 9.68608 13.9051 9.63923 13.967 9.57595C14.029 9.51267 14.0742 9.43496 14.0986 9.34983C14.1231 9.2647 14.1259 9.17483 14.1069 9.08832C14.084 8.98432 14.0304 8.88957 13.9531 8.81627C13.8759 8.74297 13.7784 8.69448 13.6734 8.67703L13.6739 8.67693ZM6.2761 23.1327C8.37821 25.443 11.1095 27.6099 14.2244 29.4085C21.766 33.7628 29.7949 34.9266 33.7517 32.2285C33.8657 32.1477 33.9434 32.0254 33.9681 31.8878C33.9928 31.7503 33.9626 31.6086 33.8839 31.4932C33.8052 31.3777 33.6844 31.2978 33.5474 31.2705C33.4103 31.2432 33.2681 31.2709 33.1512 31.3474C29.6097 33.7622 21.9828 32.6566 14.7576 28.485C11.7355 26.74 9.09097 24.642 7.06493 22.4153C6.99447 22.3354 6.90171 22.2784 6.79858 22.2516C6.69545 22.2249 6.58667 22.2296 6.48624 22.2652C6.40276 22.2948 6.32799 22.3448 6.26868 22.4106C6.20937 22.4764 6.16739 22.556 6.14653 22.6421C6.12568 22.7282 6.1266 22.8181 6.14922 22.9038C6.17185 22.9894 6.21545 23.0681 6.2761 23.1327Z" fill="#2DD0ED"/>
<path d="M32.49 22.4843C35.8942 18.4627 37.083 14.4176 35.4482 11.5858C34.2452 9.5022 31.7017 8.40209 28.3219 8.3582C28.1805 8.35638 28.0442 8.41077 27.9429 8.5094C27.8416 8.60803 27.7836 8.74284 27.7816 8.88422C27.78 8.98971 27.8098 9.09327 27.8673 9.18176C27.9247 9.27025 28.0072 9.33967 28.1041 9.3812C28.1685 9.40888 28.2377 9.42361 28.3077 9.42456C31.3475 9.46385 33.539 10.4118 34.5248 12.1191C35.8825 14.4712 34.8227 18.0785 31.6762 21.7955C31.6293 21.8487 31.5935 21.9107 31.571 21.9779C31.5484 22.0451 31.5394 22.1161 31.5446 22.1868C31.5498 22.2575 31.5691 22.3264 31.6013 22.3896C31.6335 22.4527 31.6779 22.5088 31.7321 22.5546C31.7862 22.6003 31.8489 22.6347 31.9165 22.6559C31.9841 22.6772 32.0552 22.6847 32.1258 22.6782C32.1963 22.6716 32.2648 22.6511 32.3274 22.6178C32.3899 22.5845 32.4452 22.5391 32.49 22.4843ZM23.7411 8.85465C20.6629 9.51432 17.3868 10.8037 14.2407 12.6201C6.4547 17.1152 1.37586 23.743 2.08151 28.5493C2.09029 28.6198 2.11305 28.6878 2.14846 28.7493C2.18387 28.8108 2.23122 28.8647 2.28772 28.9077C2.34423 28.9507 2.40875 28.982 2.4775 28.9997C2.54626 29.0174 2.61786 29.0212 2.68811 29.0109C2.75836 29.0005 2.82583 28.9763 2.88658 28.9395C2.94732 28.9028 3.00011 28.8542 3.04185 28.7968C3.08358 28.7394 3.11343 28.6742 3.12963 28.605C3.14582 28.5359 3.14805 28.4642 3.13617 28.3942C2.51015 24.1272 7.32409 17.8443 14.7734 13.5436C17.8256 11.7813 20.9981 10.5332 23.9646 9.89698C24.0987 9.86329 24.2144 9.77888 24.2874 9.66152C24.3605 9.54417 24.3851 9.40305 24.3561 9.2679C24.3271 9.13275 24.2468 9.01413 24.1321 8.93704C24.0173 8.85995 23.8772 8.83041 23.7411 8.85465Z" fill="#2DD0ED"/>
<path d="M11.1278 31.881C12.9085 36.8507 15.8199 39.911 19.0945 39.911C21.4823 39.911 23.6917 38.2834 25.4147 35.4174C25.4533 35.3574 25.4795 35.2902 25.4917 35.2199C25.5039 35.1495 25.5019 35.0775 25.4857 35.0079C25.4655 34.9208 25.4237 34.8402 25.3642 34.7734C25.3046 34.7067 25.2293 34.656 25.145 34.6261C25.0607 34.5961 24.9703 34.5879 24.882 34.6021C24.7937 34.6163 24.7104 34.6524 24.6397 34.7073C24.5833 34.7511 24.5363 34.8056 24.5014 34.8679C22.9528 37.4436 21.0507 38.8452 19.0945 38.8452C16.375 38.8452 13.7774 36.1155 12.132 31.5214C12.1094 31.4541 12.0736 31.392 12.0268 31.3386C11.9799 31.2853 11.923 31.2419 11.8591 31.2108C11.7953 31.1799 11.7259 31.1619 11.6551 31.158C11.5842 31.1543 11.5133 31.1647 11.4465 31.1887C11.3798 31.2127 11.3184 31.2497 11.2661 31.2977C11.2138 31.3456 11.1716 31.4035 11.142 31.468C11.1123 31.5325 11.0958 31.6022 11.0934 31.6731C11.0911 31.744 11.103 31.8147 11.1283 31.881H11.1278ZM27.3867 30.9085C28.3081 27.9646 28.8026 24.5675 28.8026 21.0275C28.8026 12.1955 25.7116 4.58139 21.3083 2.62619C21.1797 2.57206 21.0349 2.57055 20.9051 2.62199C20.7753 2.67343 20.6709 2.77372 20.6142 2.90131C20.5576 3.0289 20.5532 3.17363 20.6021 3.3044C20.651 3.43517 20.7492 3.54155 20.8756 3.60071C24.8028 5.34472 27.7367 12.5705 27.7367 21.0275C27.7367 24.4613 27.2571 27.7513 26.3693 30.5902C26.3463 30.6575 26.3371 30.7288 26.3421 30.7997C26.3471 30.8707 26.3663 30.9399 26.3986 31.0033C26.4471 31.0988 26.5232 31.1775 26.6171 31.2291C26.711 31.2807 26.8183 31.3029 26.9249 31.2926C27.0316 31.2824 27.1327 31.2403 27.215 31.1718C27.2974 31.1032 27.3572 31.0115 27.3867 30.9085ZM37.4274 30.3866C37.4296 30.0501 37.3652 29.7165 37.2379 29.4051C37.1106 29.0936 36.923 28.8104 36.6858 28.5717C36.4487 28.3331 36.1667 28.1437 35.856 28.0144C35.5454 27.8852 35.2122 27.8186 34.8758 27.8186C34.5393 27.8186 34.2062 27.8852 33.8955 28.0145C33.5849 28.1437 33.3029 28.3331 33.0657 28.5718C32.8286 28.8105 32.641 29.0937 32.5137 29.4052C32.3865 29.7167 32.3221 30.0502 32.3242 30.3867C32.3286 31.0606 32.5993 31.7054 33.0774 32.1804C33.5554 32.6554 34.202 32.9219 34.8759 32.9219C35.5498 32.9219 36.1963 32.6553 36.6744 32.1803C37.1524 31.7053 37.4231 31.0605 37.4274 30.3866ZM36.3611 30.3866C36.361 30.7805 36.2045 31.1582 35.9259 31.4367C35.6474 31.7152 35.2697 31.8718 34.8758 31.8718C34.582 31.8718 34.2949 31.7847 34.0507 31.6215C33.8065 31.4583 33.6161 31.2263 33.5037 30.955C33.3913 30.6836 33.3619 30.385 33.4192 30.0969C33.4766 29.8088 33.618 29.5442 33.8257 29.3365C34.0334 29.1288 34.298 28.9873 34.5861 28.93C34.8742 28.8727 35.1728 28.9021 35.4442 29.0145C35.7156 29.1269 35.9475 29.3173 36.1107 29.5615C36.2739 29.8057 36.361 30.0928 36.3611 30.3866ZM3.2765 32.9382C3.6116 32.9382 3.94342 32.8723 4.25302 32.7441C4.56262 32.6158 4.84393 32.4279 5.08088 32.1909C5.31783 31.954 5.50578 31.6727 5.634 31.3631C5.76221 31.0535 5.82819 30.7217 5.82815 30.3866C5.82817 30.0515 5.76219 29.7196 5.63396 29.41C5.50573 29.1004 5.31777 28.8191 5.08081 28.5822C4.84385 28.3452 4.56254 28.1573 4.25293 28.0291C3.94333 27.9008 3.6115 27.8349 3.27639 27.8349C2.94131 27.8349 2.6095 27.9009 2.29992 28.0291C1.99034 28.1574 1.70905 28.3453 1.47212 28.5823C1.23518 28.8192 1.04724 29.1005 0.91902 29.4101C0.790804 29.7197 0.724826 30.0515 0.724854 30.3866C0.724826 30.7217 0.790808 31.0535 0.91903 31.3631C1.04725 31.6727 1.2352 31.954 1.47215 32.1909C1.7091 32.4279 1.9904 32.6158 2.29999 32.744C2.60959 32.8723 2.9414 32.9382 3.2765 32.9382ZM3.2765 31.8718C2.88249 31.8718 2.50463 31.7153 2.22602 31.4367C1.94742 31.1581 1.7909 30.7803 1.7909 30.3862C1.7909 29.9922 1.94742 29.6144 2.22602 29.3358C2.50463 29.0572 2.88249 28.9007 3.2765 28.9007C3.6705 28.9007 4.04837 29.0572 4.32697 29.3358C4.60558 29.6144 4.76209 29.9922 4.76209 30.3862C4.76209 30.7803 4.60558 31.1581 4.32697 31.4367C4.04837 31.7153 3.6705 31.8718 3.2765 31.8718Z" fill="#2DD0ED"/>
<path d="M19.0945 5.22902C19.5992 5.22907 20.0926 5.07942 20.5122 4.79903C20.9318 4.51863 21.2589 4.12007 21.4519 3.65377C21.6124 3.2661 21.6748 2.84483 21.6337 2.42727C21.5925 2.00972 21.449 1.60875 21.2159 1.25989C20.9828 0.911019 20.6672 0.62501 20.2972 0.427184C19.9272 0.229358 19.5141 0.125819 19.0945 0.125732C18.5898 0.125647 18.0965 0.275243 17.6768 0.555599C17.2571 0.835955 16.93 1.23448 16.7369 1.70075C16.5437 2.16703 16.4932 2.68011 16.5917 3.1751C16.6902 3.67009 16.9333 4.12476 17.2902 4.48158C17.5272 4.71852 17.8085 4.90648 18.1181 5.03471C18.4276 5.16294 18.7594 5.22903 19.0945 5.22902ZM19.0945 4.16255C18.8008 4.16252 18.5136 4.0754 18.2694 3.91221C18.0252 3.74902 17.8348 3.51709 17.7223 3.24572C17.6476 3.06554 17.6091 2.87239 17.6091 2.67733C17.6091 2.48226 17.6476 2.28911 17.7223 2.10893C17.7969 1.92872 17.9063 1.76498 18.0442 1.62707C18.1821 1.48915 18.3459 1.37977 18.5261 1.30516C18.729 1.22111 18.9481 1.18311 19.1674 1.19389C19.3868 1.20467 19.6011 1.26397 19.7948 1.36751C19.9885 1.47106 20.1569 1.61627 20.2877 1.7927C20.4185 1.96912 20.5086 2.17237 20.5515 2.38779C20.5943 2.60322 20.5889 2.82547 20.5355 3.03854C20.4821 3.2516 20.3822 3.45018 20.2428 3.61997C20.1035 3.78976 19.9282 3.92654 19.7297 4.02045C19.5311 4.11437 19.3142 4.16308 19.0945 4.16308V4.16255ZM19.4843 22.8328C19.0056 22.9361 18.5055 22.8451 18.0939 22.5798C17.7869 22.3819 17.5455 22.0974 17.4002 21.7623C17.2548 21.4272 17.2122 21.0566 17.2776 20.6972C17.3429 20.3379 17.5134 20.006 17.7675 19.7436C18.0215 19.4811 18.3476 19.2999 18.7047 19.2229C19.1801 19.1279 19.6737 19.2236 20.0792 19.4895C20.4846 19.7553 20.7692 20.1699 20.8717 20.6437C20.9739 21.1176 20.8858 21.6127 20.6262 22.0221C20.3667 22.4316 19.9565 22.7225 19.4843 22.8322V22.8328Z" fill="#2DD0ED"/>
</g>
<defs>
<clipPath id="clip0_169278_694133">
<rect width="36.96" height="40" fill="white" transform="translate(0.47641)"/>
</clipPath>
</defs>
</svg>
