<svg width="125" height="100" viewBox="0 0 125 100" fill="none" xmlns="http://www.w3.org/2000/svg">
<path fill-rule="evenodd" clip-rule="evenodd" d="M103.5 32.5C105.433 32.5 107 34.067 107 36C107 37.933 105.433 39.5 103.5 39.5H83.5C85.433 39.5 87 41.067 87 43C87 44.933 85.433 46.5 83.5 46.5H94.5C96.433 46.5 98 48.067 98 50C98 51.933 96.433 53.5 94.5 53.5H89.413C86.9758 53.5 85 55.067 85 57C85 58.2887 86 59.4553 88 60.5C89.933 60.5 91.5 62.067 91.5 64C91.5 65.933 89.933 67.5 88 67.5H46.5C44.567 67.5 43 65.933 43 64C43 62.067 44.567 60.5 46.5 60.5H27C25.067 60.5 23.5 58.933 23.5 57C23.5 55.067 25.067 53.5 27 53.5H47C48.933 53.5 50.5 51.933 50.5 50C50.5 48.067 48.933 46.5 47 46.5H34.5C32.567 46.5 31 44.933 31 43C31 41.067 32.567 39.5 34.5 39.5H54.5C52.567 39.5 51 37.933 51 36C51 34.067 52.567 32.5 54.5 32.5H103.5ZM103.5 46.5C105.433 46.5 107 48.067 107 50C107 51.933 105.433 53.5 103.5 53.5C101.567 53.5 100 51.933 100 50C100 48.067 101.567 46.5 103.5 46.5Z" fill="white"/>
<path fill-rule="evenodd" clip-rule="evenodd" d="M76.8347 32.0001L81.4856 65.9215L81.9035 69.3246C82.0381 70.421 81.2585 71.4188 80.1621 71.5534L50.882 75.1486C49.7857 75.2832 48.7878 74.5036 48.6532 73.4072L44.1453 36.6935C44.078 36.1453 44.4678 35.6464 45.016 35.5791C45.0194 35.5786 45.0229 35.5782 45.0264 35.5778L47.4556 35.3053M49.4198 35.085L51.7134 34.8277L49.4198 35.085Z" fill="white"/>
<path d="M78.0731 31.8303C77.9793 31.1463 77.3488 30.6679 76.6649 30.7617C75.9809 30.8555 75.5025 31.4859 75.5963 32.1699L78.0731 31.8303ZM81.4856 65.9215L82.7263 65.7691C82.7256 65.7633 82.7248 65.7575 82.724 65.7517L81.4856 65.9215ZM81.9035 69.3246L83.1442 69.1723L81.9035 69.3246ZM80.1621 71.5534L80.3145 72.7941L80.1621 71.5534ZM50.882 75.1486L51.0344 76.3893L50.882 75.1486ZM48.6532 73.4072L49.8939 73.2549L48.6532 73.4072ZM44.1453 36.6935L45.386 36.5411L44.1453 36.6935ZM45.0264 35.5778L45.1657 36.82L45.0264 35.5778ZM47.5949 36.5476C48.281 36.4706 48.7747 35.8521 48.6978 35.166C48.6208 34.4799 48.0023 33.9862 47.3162 34.0631L47.5949 36.5476ZM49.2805 33.8428C48.5944 33.9198 48.1007 34.5383 48.1776 35.2244C48.2546 35.9104 48.8731 36.4042 49.5592 36.3272L49.2805 33.8428ZM51.8527 36.0699C52.5387 35.993 53.0325 35.3744 52.9556 34.6884C52.8786 34.0023 52.2601 33.5086 51.574 33.5855L51.8527 36.0699ZM75.5963 32.1699L80.2472 66.0913L82.724 65.7517L78.0731 31.8303L75.5963 32.1699ZM80.2449 66.0738L80.6628 69.477L83.1442 69.1723L82.7263 65.7691L80.2449 66.0738ZM80.6628 69.477C80.7133 69.8881 80.4209 70.2623 80.0098 70.3128L80.3145 72.7941C82.096 72.5754 83.3629 70.9538 83.1442 69.1723L80.6628 69.477ZM80.0098 70.3128L50.7297 73.9079L51.0344 76.3893L80.3145 72.7941L80.0098 70.3128ZM50.7297 73.9079C50.3186 73.9584 49.9444 73.666 49.8939 73.2549L47.4125 73.5596C47.6313 75.3411 49.2528 76.608 51.0344 76.3893L50.7297 73.9079ZM49.8939 73.2549L45.386 36.5411L42.9046 36.8458L47.4125 73.5596L49.8939 73.2549ZM45.386 36.5411C45.4028 36.6782 45.3054 36.8029 45.1683 36.8197L44.8636 34.3384C43.6303 34.4898 42.7532 35.6124 42.9046 36.8458L45.386 36.5411ZM45.1683 36.8197C45.1675 36.8198 45.1666 36.8199 45.1657 36.82L44.887 34.3356C44.8792 34.3365 44.8714 34.3374 44.8636 34.3384L45.1683 36.8197ZM45.1657 36.82L47.5949 36.5476L47.3162 34.0631L44.887 34.3356L45.1657 36.82ZM49.5592 36.3272L51.8527 36.0699L51.574 33.5855L49.2805 33.8428L49.5592 36.3272Z" fill="#147AF3"/>
<path fill-rule="evenodd" clip-rule="evenodd" d="M75.5723 34.1345L79.7821 64.8764L80.1608 67.9605C80.2828 68.9541 79.5857 69.8572 78.604 69.9778L52.383 73.1973C51.4012 73.3179 50.5064 72.6102 50.3844 71.6166L46.4312 39.4209C46.2966 38.3245 47.0763 37.3267 48.1726 37.1921L50.4238 36.9156" fill="#E0F2FF"/>
<path d="M54.5859 29C54.5859 27.4812 55.8172 26.25 57.3359 26.25H77.2863C78.0153 26.25 78.7145 26.5395 79.2302 27.0549L84.7799 32.6011L85.6635 31.7169L84.7799 32.6011C85.296 33.1169 85.5859 33.8166 85.5859 34.5463V63C85.5859 64.5188 84.3547 65.75 82.8359 65.75H57.3359C55.8172 65.75 54.5859 64.5188 54.5859 63V29Z" fill="white" stroke="#147AF3" stroke-width="2.5"/>
<path d="M78.3359 26.2014V32C78.3359 32.8284 79.0075 33.5 79.8359 33.5H83.8027" stroke="#147AF3" stroke-width="2.5" stroke-linecap="round" stroke-linejoin="round"/>
<path d="M59 59H72M59 33.5H72H59ZM59 39.5H80.5H59ZM59 46H80.5H59ZM59 52.5H80.5H59Z" stroke="#B5DEFF" stroke-width="2.5" stroke-linecap="round" stroke-linejoin="round"/>
</svg>
