<svg width="41" height="40" viewBox="0 0 41 40" fill="none" xmlns="http://www.w3.org/2000/svg">
<g clip-path="url(#clip0_169278_694138)">
<path d="M0.292358 0H40.2924V40H0.292358V0Z" fill="#F0DB4F"/>
<path d="M37.0186 30.4602C36.7258 28.6351 35.5357 27.1028 32.011 25.6731C30.7867 25.1104 29.4216 24.7074 29.0148 23.7796C28.8703 23.2396 28.8513 22.9355 28.9425 22.6085C29.2049 21.5476 30.4711 21.2168 31.4749 21.521C32.1213 21.7377 32.7334 22.2359 33.1022 23.0305C34.8285 21.9127 34.8247 21.9203 36.03 21.1522C35.5889 20.4678 35.3532 20.1522 35.0642 19.8595C34.0262 18.6998 32.6117 18.1028 30.3494 18.1484C29.9578 18.1979 29.5624 18.2511 29.1707 18.3005C28.0414 18.5857 26.9654 19.1788 26.3342 19.9735C24.4406 22.1218 24.9806 25.8822 27.2848 27.4298C29.5547 29.1332 32.8893 29.5211 33.3152 31.1142C33.7296 33.0648 31.8817 33.6959 30.0452 33.4716C28.6916 33.1903 27.9388 32.502 27.1251 31.2511C25.627 32.118 25.627 32.118 24.0871 33.0039C24.4521 33.8024 24.8361 34.1636 25.4483 34.8557C28.3456 37.7948 35.5965 37.6503 36.897 33.2017C36.9502 33.0495 37.3 32.0305 37.0186 30.4602ZM22.0376 18.3841H18.2962C18.2962 21.6161 18.281 24.8252 18.281 28.0571C18.281 30.1142 18.3875 32.0001 18.0529 32.578C17.5053 33.7149 16.0871 33.5742 15.4407 33.3537C14.7829 33.0305 14.4483 32.5704 14.0605 31.9203C13.954 31.7339 13.8741 31.5895 13.8475 31.578C12.8323 32.1978 11.8209 32.8214 10.8057 33.4412C11.3114 34.4792 12.0566 35.3803 13.011 35.9658C14.4368 36.8214 16.3532 37.0837 18.357 36.6236C19.6612 36.2434 20.7867 35.4564 21.376 34.2587C22.2277 32.6883 22.0452 30.7872 22.0376 28.6845C22.0566 25.2549 22.0376 21.8252 22.0376 18.3841Z" fill="#323330"/>
</g>
<defs>
<clipPath id="clip0_169278_694138">
<rect width="40" height="40" fill="white" transform="translate(0.292358)"/>
</clipPath>
</defs>
</svg>
