<svg xmlns="http://www.w3.org/2000/svg" width="32" height="32" viewBox="0 0 32 32" fill="none">
	<path fill-rule="evenodd" clip-rule="evenodd" d="M8.53333 0C3.82051 0 0 3.8205 0 8.53333V23.4667C0 28.1795 3.82051 32 8.53333 32H23.4667C28.1795 32 32 28.1795 32 23.4667V8.53333C32 3.82051 28.1795 0 23.4667 0H8.53333ZM5.33333 8.88889C5.33333 6.92521 6.92521 5.33333 8.88888 5.33333H23.1111C25.0748 5.33333 26.6667 6.92521 26.6667 8.88889V23.1111C26.6667 25.0748 25.0748 26.6667 23.1111 26.6667H8.88888C6.92521 26.6667 5.33333 25.0748 5.33333 23.1111V8.88889ZM11.7333 8.88889C10.1624 8.88889 8.88888 10.1624 8.88888 11.7333C8.88888 12.1261 9.20726 12.4445 9.6 12.4445H14.2222V20.2667C14.2222 21.8376 15.4957 23.1111 17.0667 23.1111C17.4594 23.1111 17.7778 22.7927 17.7778 22.4V12.4445H20.2667C21.8376 12.4445 23.1111 11.1709 23.1111 9.6C23.1111 9.20727 22.7927 8.88889 22.4 8.88889H11.7333Z" fill="#FD5956" />
</svg>
