<svg width="80" height="32" viewBox="0 0 80 32" fill="none" xmlns="http://www.w3.org/2000/svg">
<path d="M40.032 3.39981H38.192V1.7998H43.632V3.39981H41.792V12.9998H40.032V3.39981Z" fill="black"/>
<path d="M44.4841 1.7998H46.2441V6.35981H48.1321V1.7998H49.8921V12.9998H48.1321V7.95981H46.2441V12.9998H44.4841V1.7998Z" fill="black"/>
<path d="M51.2029 1.7998H52.9629V12.9998H51.2029V1.7998Z" fill="black"/>
<path d="M54.281 1.7998H56.489L58.201 8.50381H58.233V1.7998H59.801V12.9998H57.993L55.881 4.8238H55.849V12.9998H54.281V1.7998Z" fill="black"/>
<path d="M61.1091 1.7998H62.8691V6.35981H64.7571V1.7998H66.5171V12.9998H64.7571V7.95981H62.8691V12.9998H61.1091V1.7998Z" fill="black"/>
<path d="M38.656 17.7998H40.864L42.576 24.5038H42.608V17.7998H44.176V28.9998H42.368L40.256 20.8238H40.224V28.9998H38.656V17.7998Z" fill="black"/>
<path d="M47.9801 29.1598C47.1268 29.1598 46.4761 28.9198 46.0281 28.4398C45.5801 27.9491 45.3561 27.2505 45.3561 26.3438V20.4558C45.3561 19.5491 45.5801 18.8558 46.0281 18.3758C46.4761 17.8851 47.1268 17.6398 47.9801 17.6398C48.8335 17.6398 49.4841 17.8851 49.9321 18.3758C50.3801 18.8558 50.6041 19.5491 50.6041 20.4558V21.4158H48.9401V20.3438C48.9401 19.6078 48.6361 19.2398 48.0281 19.2398C47.4201 19.2398 47.1161 19.6078 47.1161 20.3438V26.4718C47.1161 27.1971 47.4201 27.5598 48.0281 27.5598C48.6361 27.5598 48.9401 27.1971 48.9401 26.4718V24.2798H48.0601V22.6798H50.6041V26.3438C50.6041 27.2505 50.3801 27.9491 49.9321 28.4398C49.4841 28.9198 48.8335 29.1598 47.9801 29.1598Z" fill="black"/>
<path d="M54.2941 29.1598C53.4408 29.1598 52.7901 28.9198 52.3421 28.4398C51.8941 27.9491 51.6701 27.2505 51.6701 26.3438V17.7998H53.4301V26.4718C53.4301 26.8558 53.5048 27.1331 53.6541 27.3038C53.8141 27.4745 54.0381 27.5598 54.3261 27.5598C54.6141 27.5598 54.8328 27.4745 54.9821 27.3038C55.1421 27.1331 55.2221 26.8558 55.2221 26.4718V17.7998H56.9181V26.3438C56.9181 27.2505 56.6941 27.9491 56.2461 28.4398C55.7981 28.9198 55.1475 29.1598 54.2941 29.1598Z" fill="black"/>
<path d="M59.7876 24.2318L57.6596 17.7998H59.5316L60.7316 21.9118H60.7636L61.9636 17.7998H63.6756L61.5476 24.2318V28.9998H59.7876V24.2318Z" fill="black"/>
<path d="M64.4685 17.7998H69.2685V19.3998H66.2285V22.3598H68.6445V23.9598H66.2285V27.3998H69.2685V28.9998H64.4685V17.7998Z" fill="black"/>
<path d="M70.281 17.7998H72.489L74.201 24.5038H74.233V17.7998H75.801V28.9998H73.993L71.881 20.8238H71.849V28.9998H70.281V17.7998Z" fill="black"/>
<path fill-rule="evenodd" clip-rule="evenodd" d="M8.53333 0C3.82051 0 0 3.8205 0 8.53333V23.4667C0 28.1795 3.82051 32 8.53333 32H23.4667C28.1795 32 32 28.1795 32 23.4667V8.53333C32 3.82051 28.1795 0 23.4667 0H8.53333ZM5.33333 8.88889C5.33333 6.92521 6.92521 5.33333 8.88888 5.33333H23.1111C25.0748 5.33333 26.6667 6.92521 26.6667 8.88889V23.1111C26.6667 25.0748 25.0748 26.6667 23.1111 26.6667H8.88888C6.92521 26.6667 5.33333 25.0748 5.33333 23.1111V8.88889ZM11.7333 8.88889C10.1624 8.88889 8.88888 10.1624 8.88888 11.7333C8.88888 12.1261 9.20726 12.4445 9.6 12.4445H14.2222V20.2667C14.2222 21.8376 15.4957 23.1111 17.0667 23.1111C17.4594 23.1111 17.7778 22.7927 17.7778 22.4V12.4445H20.2667C21.8376 12.4445 23.1111 11.1709 23.1111 9.6C23.1111 9.20727 22.7927 8.88889 22.4 8.88889H11.7333Z" fill="#FD5956"/>
</svg>
