<svg width="36" height="40" viewBox="0 0 36 40" fill="none" xmlns="http://www.w3.org/2000/svg">
<g clip-path="url(#clip0_169278_694140)">
<path d="M35.9484 20.0035C35.9484 17.678 33.0361 15.4742 28.5712 14.1075C29.6016 9.55675 29.1437 5.93616 27.1259 4.77699C26.6608 4.50509 26.1169 4.3763 25.5231 4.3763V5.97193C25.8522 5.97193 26.1169 6.03633 26.3388 6.15797C27.3119 6.71609 27.7341 8.84122 27.4049 11.5745C27.3262 12.2471 27.1974 12.9555 27.04 13.6782C25.6375 13.3348 24.1063 13.07 22.4964 12.8983C21.5304 11.5745 20.5286 10.3725 19.5197 9.32062C21.8524 7.15256 24.0419 5.96478 25.5302 5.96478V4.36914C23.5625 4.36914 20.9866 5.77158 18.382 8.20439C15.7775 5.78589 13.2016 4.39776 11.2339 4.39776V5.9934C12.715 5.9934 14.9117 7.17403 17.2444 9.32778C16.2426 10.3796 15.2409 11.5745 14.2892 12.8983C12.6721 13.07 11.1409 13.3348 9.73842 13.6854C9.57385 12.9698 9.45221 12.2758 9.36635 11.6103C9.03005 8.87699 9.44506 6.75186 10.411 6.18659C10.6257 6.0578 10.9047 6.00055 11.2339 6.00055V4.40492C10.6328 4.40492 10.089 4.53371 9.61678 4.80562C7.60614 5.96478 7.15535 9.57821 8.19287 14.1147C3.74226 15.4885 0.84436 17.6852 0.84436 20.0035C0.84436 22.329 3.75657 24.5328 8.22149 25.8995C7.19113 30.4503 7.64907 34.0709 9.66687 35.23C10.132 35.5019 10.6758 35.6307 11.2768 35.6307C13.2445 35.6307 15.8204 34.2283 18.425 31.7955C21.0295 34.214 23.6054 35.6021 25.5731 35.6021C26.1742 35.6021 26.718 35.4733 27.1903 35.2014C29.2009 34.0422 29.6517 30.4288 28.6142 25.8923C33.0505 24.5257 35.9484 22.3218 35.9484 20.0035ZM26.6321 15.2309C26.3674 16.154 26.0382 17.1056 25.6662 18.0573C25.3728 17.4848 25.0651 16.9124 24.7288 16.34C24.3997 15.7676 24.0491 15.2094 23.6985 14.6656C24.7145 14.8159 25.6948 15.0019 26.6321 15.2309ZM23.355 22.8513C22.7969 23.8173 22.2245 24.7332 21.6306 25.5847C20.5644 25.6777 19.484 25.7278 18.3964 25.7278C17.3159 25.7278 16.2355 25.6777 15.1765 25.5918C14.5826 24.7403 14.003 23.8316 13.4449 22.8728C12.9011 21.9354 12.4074 20.9838 11.9566 20.025C12.4002 19.0662 12.9011 18.1074 13.4377 17.17C13.9958 16.204 14.5683 15.2882 15.1622 14.4367C16.2283 14.3437 17.3088 14.2936 18.3964 14.2936C19.4768 14.2936 20.5573 14.3437 21.6163 14.4295C22.2101 15.281 22.7897 16.1897 23.3478 17.1485C23.8916 18.0859 24.3854 19.0375 24.8361 19.9964C24.3854 20.9552 23.8916 21.914 23.355 22.8513ZM25.6662 21.9211C26.0525 22.88 26.3817 23.8388 26.6536 24.769C25.7163 24.9979 24.7288 25.1911 23.7056 25.3414C24.0562 24.7904 24.4068 24.2252 24.736 23.6456C25.0651 23.0731 25.3728 22.4936 25.6662 21.9211ZM18.4107 29.5559C17.7452 28.869 17.0798 28.1033 16.4215 27.2662C17.0655 27.2948 17.7238 27.3162 18.3892 27.3162C19.0618 27.3162 19.7272 27.3019 20.3784 27.2662C19.7344 28.1033 19.069 28.869 18.4107 29.5559ZM13.0871 25.3414C12.0711 25.1911 11.0908 25.0051 10.1534 24.7761C10.4182 23.8531 10.7473 22.9014 11.1194 21.9498C11.4128 22.5222 11.7204 23.0946 12.0567 23.667C12.393 24.2395 12.7365 24.7976 13.0871 25.3414ZM18.3749 10.4512C19.0403 11.1381 19.7058 11.9037 20.3641 12.7409C19.7201 12.7122 19.0618 12.6908 18.3964 12.6908C17.7238 12.6908 17.0583 12.7051 16.4072 12.7409C17.0512 11.9037 17.7166 11.1381 18.3749 10.4512ZM13.08 14.6656C12.7293 15.2166 12.3787 15.7819 12.0496 16.3615C11.7204 16.9339 11.4128 17.5063 11.1194 18.0787C10.733 17.1199 10.4039 16.1611 10.132 15.2309C11.0693 15.0091 12.0567 14.8159 13.08 14.6656ZM6.60439 23.6241C4.07141 22.5437 2.43284 21.1269 2.43284 20.0035C2.43284 18.8801 4.07141 17.4562 6.60439 16.3829C7.21975 16.1182 7.89235 15.882 8.58642 15.6602C8.99427 17.0627 9.53092 18.5224 10.1964 20.0178C9.53807 21.5061 9.00858 22.9587 8.60788 24.3539C7.89951 24.1321 7.22691 23.8889 6.60439 23.6241ZM10.454 33.8491C9.48083 33.2909 9.05867 31.1658 9.38781 28.4325C9.46652 27.7599 9.59532 27.0515 9.75274 26.3288C11.1552 26.6723 12.6864 26.937 14.2964 27.1087C15.2623 28.4325 16.2641 29.6346 17.273 30.6864C14.9403 32.8545 12.7508 34.0423 11.2625 34.0423C10.9405 34.0351 10.6686 33.9707 10.454 33.8491ZM27.4264 28.3967C27.7627 31.13 27.3477 33.2552 26.3817 33.8204C26.167 33.9492 25.888 34.0065 25.5588 34.0065C24.0777 34.0065 21.881 32.8258 19.5484 30.6721C20.5501 29.6203 21.5519 28.4253 22.5035 27.1016C24.1206 26.9299 25.6519 26.6651 27.0543 26.3145C27.2189 27.0372 27.3477 27.7313 27.4264 28.3967ZM30.1812 23.6241C29.5658 23.8889 28.8932 24.125 28.1991 24.3468C27.7913 22.9444 27.2546 21.4847 26.5892 19.9892C27.2475 18.5009 27.777 17.0484 28.1777 15.6531C28.8861 15.8749 29.5587 16.1182 30.1883 16.3829C32.7213 17.4634 34.3599 18.8801 34.3599 20.0035C34.3527 21.1269 32.7142 22.5508 30.1812 23.6241Z" fill="#61DAFB"/>
<path d="M18.3892 23.2736C20.1952 23.2736 21.6592 21.8096 21.6592 20.0036C21.6592 18.1977 20.1952 16.7336 18.3892 16.7336C16.5833 16.7336 15.1192 18.1977 15.1192 20.0036C15.1192 21.8096 16.5833 23.2736 18.3892 23.2736Z" fill="#61DAFB"/>
</g>
<defs>
<clipPath id="clip0_169278_694140">
<rect width="35.104" height="40" fill="white" transform="translate(0.84436)"/>
</clipPath>
</defs>
</svg>
