<svg width="444" height="444" viewBox="0 0 444 444" fill="none" xmlns="http://www.w3.org/2000/svg">
<path d="M108.644 315.009L167.623 280.732L164.593 278.983L108.625 311.509L89.0878 300.228L44.873 325.922L47.8498 327.644L89.054 303.696L108.644 315.009Z" fill="#4C5671"/>
<path d="M178.934 287.264L175.904 285.514L109.612 324.037L93.3765 314.665L59.4854 334.359L62.5156 336.109L93.4491 318.133L109.684 327.505L178.934 287.264Z" fill="#4C5671"/>
<path d="M186.51 291.638L86.3271 349.859L89.3039 351.577L189.487 293.356L186.51 291.638Z" fill="#4C5671"/>
<path d="M133.803 338.003L200.095 299.48L197.064 297.731L127.815 337.975L144.051 347.347L113.117 365.324L116.147 367.073L150.039 347.38L133.803 338.003Z" fill="#4C5671"/>
<path d="M211.35 305.98L208.374 304.262L149.395 338.535L168.986 349.848L127.782 373.793L130.758 375.511L174.973 349.817L155.383 338.503L211.35 305.98Z" fill="#4C5671"/>
<path d="M333.119 231.703L274.14 265.979L277.17 267.729L333.138 235.203L352.675 246.484L396.89 220.789L393.913 219.068L352.709 243.016L333.119 231.703Z" fill="#4C5671"/>
<path d="M262.828 259.448L265.858 261.197L332.15 222.674L348.386 232.046L382.277 212.353L379.247 210.603L348.313 228.579L332.078 219.207L262.828 259.448Z" fill="#4C5671"/>
<path d="M255.251 255.073L355.434 196.852L352.458 195.135L252.274 253.355L255.251 255.073Z" fill="#4C5671"/>
<path d="M307.959 208.708L241.668 247.232L244.698 248.981L313.948 208.736L297.712 199.364L328.645 181.388L325.615 179.639L291.724 199.332L307.959 208.708Z" fill="#4C5671"/>
<path d="M230.411 240.732L233.388 242.449L292.367 208.177L272.776 196.864L313.98 172.919L311.003 171.201L266.789 196.895L286.38 208.209L230.411 240.732Z" fill="#4C5671"/>
<path d="M333.118 315.009L274.139 280.733L277.169 278.983L333.137 311.509L352.674 300.228L396.889 325.922L393.912 327.644L352.708 303.696L333.118 315.009Z" fill="#4C5671"/>
<path d="M262.828 287.264L265.858 285.514L332.15 324.037L348.386 314.665L382.277 334.359L379.247 336.109L348.313 318.133L332.078 327.505L262.828 287.264Z" fill="#4C5671"/>
<path d="M255.251 291.638L355.434 349.859L352.458 351.577L252.274 293.356L255.251 291.638Z" fill="#4C5671"/>
<path d="M307.959 338.003L241.668 299.48L244.698 297.731L313.948 337.975L297.712 347.347L328.645 365.324L325.615 367.073L291.724 347.38L307.959 338.003Z" fill="#4C5671"/>
<path d="M230.411 305.98L233.388 304.262L292.367 338.535L272.776 349.848L313.98 373.793L311.003 375.511L266.789 349.817L286.38 338.503L230.411 305.98Z" fill="#4C5671"/>
<path d="M108.644 231.703L167.623 265.979L164.593 267.729L108.625 235.203L89.0878 246.484L44.873 220.789L47.8498 219.068L89.054 243.016L108.644 231.703Z" fill="#4C5671"/>
<path d="M178.934 259.448L175.904 261.197L109.612 222.674L93.3765 232.046L59.4854 212.353L62.5156 210.603L93.4491 228.579L109.684 219.207L178.934 259.448Z" fill="#4C5671"/>
<path d="M186.51 255.073L86.3271 196.852L89.3039 195.135L189.487 253.355L186.51 255.073Z" fill="#4C5671"/>
<path d="M133.803 208.708L200.095 247.232L197.064 248.981L127.815 208.736L144.051 199.364L113.117 181.388L116.147 179.638L150.039 199.332L133.803 208.708Z" fill="#4C5671"/>
<path d="M211.35 240.732L208.374 242.449L149.395 208.177L168.986 196.864L127.782 172.919L130.758 171.201L174.973 196.895L155.383 208.209L211.35 240.732Z" fill="#4C5671"/>
<path d="M319.573 298.58L230.184 350.53C225.244 353.384 217.216 353.384 212.276 350.53L122.193 298.58C117.33 295.723 117.252 291.091 122.193 288.158L211.582 236.208C216.522 233.35 224.55 233.35 229.491 236.208L319.496 288.233C324.513 291.09 324.513 295.723 319.573 298.58Z" fill="white"/>
<path d="M319.517 288.215L229.486 236.235C224.55 233.386 216.522 233.363 211.579 236.235L122.173 288.192C117.228 291.068 117.294 295.715 122.23 298.565L212.262 350.545C217.239 353.417 225.225 353.417 230.17 350.545L319.576 298.588C324.52 295.716 324.494 291.088 319.517 288.215ZM317.641 295.252L228.23 347.206C224.51 349.376 217.944 349.369 214.19 347.202L124.16 295.222C122.735 294.4 122.354 293.638 122.354 293.352C122.354 293.077 122.72 292.338 124.114 291.528L213.519 239.574C215.381 238.489 217.947 237.954 220.521 237.954C223.096 237.954 225.678 238.493 227.554 239.578L317.588 291.558C318.922 292.327 319.404 293.096 319.404 293.424C319.405 293.745 318.938 294.499 317.641 295.252Z" fill="#5793FB"/>
<path d="M323.265 241.476L323.201 279.512C323.201 281.412 321.997 283.25 319.525 284.708L230.102 336.613C225.159 339.528 217.173 339.528 212.23 336.613L122.173 284.647C119.702 283.189 118.434 281.351 118.434 279.448L118.497 241.35C118.497 243.25 119.764 245.15 122.235 246.61L212.293 298.577C217.237 301.43 225.221 301.43 230.165 298.577L319.588 246.61C322.06 245.15 323.265 243.315 323.265 241.476Z" fill="#3A53D0"/>
<path d="M319.516 236.234C324.493 239.107 324.519 243.733 319.574 246.607L230.168 298.564C225.224 301.437 217.237 301.437 212.261 298.564L122.229 246.584C117.293 243.734 117.227 239.085 122.172 236.211L211.578 184.254C216.522 181.381 224.549 181.404 229.485 184.254L319.516 236.234Z" fill="#5793FB"/>
<path d="M319.575 241.271L230.168 293.231C225.224 296.103 217.238 296.103 212.261 293.231L122.23 241.249C120.927 240.499 120.012 239.615 119.39 238.678C117.584 241.324 118.542 244.454 122.23 246.585L212.261 298.563C217.238 301.435 225.224 301.435 230.168 298.563L319.575 246.608C323.222 244.486 324.121 241.417 322.367 238.798C321.752 239.699 320.832 240.543 319.575 241.271Z" fill="#7BB1FF"/>
<path d="M252.737 302.252L252.789 316.035L257.82 313.131L257.768 299.347L252.737 302.252Z" fill="#7BB1FF"/>
<path d="M242.961 307.896L243.012 321.68L248.068 318.76L248.017 304.976L242.961 307.896Z" fill="#7BB1FF"/>
<path d="M233.211 313.525L233.262 327.309L238.292 324.405L238.241 310.621L233.211 313.525Z" fill="#7BB1FF"/>
<path d="M323.265 184.667L323.201 222.703C323.201 224.603 321.997 226.441 319.525 227.899L230.102 279.804C225.159 282.719 217.173 282.719 212.23 279.804L122.173 227.838C119.702 226.38 118.434 224.542 118.434 222.639L118.497 184.541C118.497 186.441 119.764 188.341 122.235 189.802L212.293 241.768C217.237 244.621 225.221 244.621 230.165 241.768L319.588 189.802C322.06 188.34 323.265 186.505 323.265 184.667Z" fill="#3A53D0"/>
<path d="M319.516 179.424C324.493 182.298 324.519 186.924 319.574 189.797L230.168 241.754C225.224 244.627 217.237 244.627 212.261 241.754L122.229 189.774C117.293 186.925 117.227 182.275 122.172 179.402L211.578 127.445C216.522 124.571 224.549 124.594 229.485 127.445L319.516 179.424Z" fill="#5793FB"/>
<path d="M319.575 184.462L230.168 236.421C225.224 239.294 217.238 239.294 212.261 236.421L122.23 184.439C120.927 183.689 120.012 182.805 119.39 181.868C117.584 184.514 118.542 187.645 122.23 189.776L212.261 241.753C217.238 244.626 225.224 244.626 230.168 241.753L319.575 189.799C323.222 187.676 324.121 184.608 322.367 181.988C321.752 182.89 320.832 183.734 319.575 184.462Z" fill="#7BB1FF"/>
<path d="M252.737 245.442L252.789 259.226L257.82 256.322L257.768 242.537L252.737 245.442Z" fill="#7BB1FF"/>
<path d="M242.961 251.086L243.012 264.87L248.068 261.951L248.017 248.167L242.961 251.086Z" fill="#7BB1FF"/>
<path d="M233.211 256.715L233.262 270.5L238.292 267.595L238.241 253.811L233.211 256.715Z" fill="#7BB1FF"/>
<path d="M323.265 127.858L323.201 165.894C323.201 167.794 321.997 169.632 319.525 171.09L230.102 222.994C225.159 225.91 217.173 225.91 212.23 222.994L122.173 171.028C119.702 169.571 118.434 167.732 118.434 165.829L118.497 127.731C118.497 129.632 119.764 131.532 122.235 132.992L212.293 184.958C217.237 187.811 225.221 187.811 230.165 184.958L319.588 132.992C322.06 131.531 323.265 129.695 323.265 127.858Z" fill="#3A53D0"/>
<path d="M319.516 122.615C324.493 125.489 324.519 130.115 319.574 132.988L230.168 184.945C225.224 187.818 217.237 187.819 212.261 184.945L122.229 132.966C117.293 130.116 117.227 125.466 122.172 122.593L211.578 70.6359C216.522 67.7625 224.549 67.7853 229.485 70.6359L319.516 122.615Z" fill="#5793FB"/>
<path d="M159.81 128.7L220.451 93.4605L281.943 128.962L221.297 164.201L159.81 128.7Z" fill="#3A53D0"/>
<path d="M319.575 127.652L230.168 179.611C225.224 182.484 217.238 182.484 212.261 179.611L122.23 127.63C120.927 126.88 120.012 125.996 119.39 125.059C117.584 127.706 118.542 130.836 122.23 132.967L212.261 184.944C217.238 187.817 225.224 187.817 230.168 184.944L319.575 132.99C323.222 130.867 324.121 127.799 322.367 125.179C321.752 126.081 320.832 126.924 319.575 127.652Z" fill="#7BB1FF"/>
<path d="M252.737 188.633L252.789 202.417L257.82 199.512L257.768 185.728L252.737 188.633Z" fill="#7BB1FF"/>
<path d="M242.961 194.277L243.012 208.061L248.068 205.141L248.017 191.358L242.961 194.277Z" fill="#7BB1FF"/>
<path d="M233.211 199.907L233.262 213.69L238.292 210.786L238.241 197.002L233.211 199.907Z" fill="#7BB1FF"/>
<path d="M294.52 268.814C292.765 269.826 291.356 272.291 291.362 274.306C291.368 276.3 292.786 277.13 294.541 276.117C296.297 275.105 297.705 272.64 297.699 270.647C297.693 268.631 296.276 267.797 294.52 268.814Z" fill="#96D696"/>
<path d="M303.94 263.374C302.184 264.386 300.755 266.864 300.76 268.881C300.766 270.874 302.205 271.691 303.96 270.679C305.694 269.68 307.124 267.202 307.118 265.209C307.113 263.193 305.674 262.371 303.94 263.374Z" fill="#ED5D71"/>
<path d="M313.339 257.948C311.583 258.96 310.175 261.425 310.181 263.44C310.187 265.434 311.603 266.265 313.359 265.252C315.115 264.24 316.524 261.775 316.518 259.782C316.511 257.766 315.094 256.932 313.339 257.948Z" fill="#FFDD94"/>
<path d="M294.52 212.004C292.765 213.016 291.356 215.481 291.362 217.496C291.368 219.49 292.786 220.321 294.541 219.308C296.297 218.296 297.705 215.831 297.699 213.838C297.693 211.822 296.276 210.987 294.52 212.004Z" fill="#96D696"/>
<path d="M303.94 206.565C302.184 207.577 300.755 210.055 300.76 212.071C300.766 214.064 302.205 214.882 303.96 213.869C305.694 212.87 307.124 210.392 307.118 208.399C307.113 206.383 305.674 205.562 303.94 206.565Z" fill="#ED5D71"/>
<path d="M313.339 201.139C311.583 202.151 310.175 204.616 310.181 206.632C310.187 208.625 311.603 209.456 313.359 208.443C315.115 207.431 316.524 204.966 316.518 202.973C316.511 200.957 315.094 200.122 313.339 201.139Z" fill="#FFDD94"/>
<path d="M294.52 155.195C292.765 156.207 291.356 158.672 291.362 160.687C291.368 162.68 292.786 163.511 294.541 162.498C296.297 161.486 297.705 159.021 297.699 157.028C297.693 155.013 296.276 154.178 294.52 155.195Z" fill="#96D696"/>
<path d="M303.94 149.755C302.184 150.767 300.755 153.245 300.76 155.261C300.766 157.255 302.205 158.072 303.96 157.06C305.694 156.061 307.124 153.583 307.118 151.589C307.113 149.573 305.674 148.752 303.94 149.755Z" fill="#ED5D71"/>
<path d="M313.339 144.33C311.583 145.342 310.175 147.807 310.181 149.822C310.187 151.815 311.603 152.646 313.359 151.633C315.115 150.621 316.524 148.156 316.518 146.163C316.511 144.148 315.094 143.313 313.339 144.33Z" fill="#FFDD94"/>
</svg>
