<?xml version="1.0" standalone="no"?><svg xmlns="http://www.w3.org/2000/svg" viewBox="0 0 1440 320"><path fill="#fd5956" fill-opacity="0.6" d="M0,32L34.3,69.3C68.6,107,137,181,206,192C274.3,203,343,149,411,112C480,75,549,53,617,74.7C685.7,96,754,160,823,197.3C891.4,235,960,245,1029,256C1097.1,267,1166,277,1234,250.7C1302.9,224,1371,160,1406,128L1440,96L1440,320L1405.7,320C1371.4,320,1303,320,1234,320C1165.7,320,1097,320,1029,320C960,320,891,320,823,320C754.3,320,686,320,617,320C548.6,320,480,320,411,320C342.9,320,274,320,206,320C137.1,320,69,320,34,320L0,320Z"/></svg>