<svg id="visual" viewBox="0 0 960 540" width="960" height="540" xmlns="http://www.w3.org/2000/svg" xmlns:xlink="http://www.w3.org/1999/xlink" version="1.1">
	<rect x="0" y="0" width="960" height="540" fill="#fdfdfd">
	</rect>
	<defs>
		<linearGradient id="grad1_0" x1="43.8%" y1="0%" x2="100%" y2="100%">
			<stop offset="14.444444444444446%" stop-color="#fdfdfd" stop-opacity="1">
			</stop>
			<stop offset="85.55555555555554%" stop-color="#fdfdfd" stop-opacity="1">
			</stop>
		</linearGradient>
	</defs>
	<defs>
		<linearGradient id="grad2_0" x1="0%" y1="0%" x2="56.3%" y2="100%">
			<stop offset="14.444444444444446%" stop-color="#fdfdfd" stop-opacity="1">
			</stop>
			<stop offset="85.55555555555554%" stop-color="#fdfdfd" stop-opacity="1">
			</stop>
		</linearGradient>
	</defs>
	<g transform="translate(960, 0)">
		<path d="M0 243C-47.8 239.7 -95.6 236.4 -121.5 210.4C-147.4 184.5 -151.4 135.9 -168 97C-184.6 58.1 -213.8 29.1 -243 0L0 0Z" fill="#fd5956">
		</path>
	</g>
	<g transform="translate(0, 540)">
		<path d="M0 -243C29.9 -215.2 59.7 -187.4 98.5 -170.6C137.3 -153.8 184.9 -148.1 210.4 -121.5C236 -94.9 239.5 -47.5 243 0L0 0Z" fill="#fd5956">
		</path>
	</g>
</svg>
