<?xml version="1.0" standalone="no"?><!DOCTYPE svg PUBLIC "-//W3C//DTD SVG 20010904//EN"
 "http://www.w3.org/TR/2001/REC-SVG-20010904/DTD/svg10.dtd"><svg version="1.0" xmlns="http://www.w3.org/2000/svg" width="700.000000pt" height="700.000000pt" viewBox="0 0 700.000000 700.000000" preserveAspectRatio="xMidYMid meet"><metadata>Created by potrace 1.14, written by Peter Selinger 2001-2017</metadata><g transform="translate(0.000000,700.000000) scale(0.100000,-0.100000)" fill="#000000" stroke="none"><path d="M1719 6996 c-2 -2 -31 -7 -64 -10 -194 -21 -418 -84 -590 -167 -295
-141 -549 -361 -747 -644 -59 -84 -130 -218 -172 -320 -15 -38 -32 -79 -36
-90 -21 -49 -69 -222 -75 -270 -5 -44 -11 -75 -22 -120 -11 -45 -13 -3626 -2
-3715 18 -148 73 -378 109 -455 5 -11 24 -54 42 -95 50 -114 131 -255 205
-355 78 -105 269 -299 363 -368 36 -27 73 -55 83 -63 9 -8 19 -14 21 -14 3 0
40 -22 83 -48 138 -85 357 -175 503 -208 94 -21 99 -22 165 -35 71 -14 3609
-23 3735 -9 367 40 704 178 985 404 91 73 261 249 315 326 13 19 27 37 30 40
6 5 64 94 98 151 87 144 172 362 208 534 44 205 43 168 41 2070 -3 1623 -4
1819 -19 1895 -62 326 -172 582 -356 830 -60 80 -235 261 -317 327 -191 153
-428 276 -660 341 -102 29 -118 32 -245 52 -107 17 -239 18 -1896 19 -979 0
-1783 -1 -1785 -3z m3521 -1186 c111 -30 157 -50 238 -104 169 -112 281 -268
333 -466 l22 -85 0 -1645 c0 -1535 -1 -1650 -17 -1723 -47 -210 -159 -375
-333 -490 -103 -68 -201 -105 -328 -124 -54 -8 -3259 -8 -3310 0 -70 11 -99
18 -140 32 -263 90 -452 296 -517 563 -20 86 -21 98 -21 1722 0 899 3 1652 6
1672 10 58 26 120 40 158 18 51 75 160 92 177 8 8 15 18 15 22 0 4 29 37 64
73 136 140 300 219 491 237 39 3 792 6 1675 5 l1605 -1 85 -23z"/><path d="M2517 5054 c-1 -1 -22 -4 -47 -7 -146 -17 -306 -115 -403 -246 -40
-54 -93 -160 -101 -202 -32 -173 -28 -217 22 -271 46 -49 59 -51 609 -51 l513
0 1 -876 c0 -482 2 -889 4 -906 29 -219 163 -402 361 -493 40 -18 103 -38 140
-46 129 -24 196 -8 246 58 l23 31 3 1116 2 1116 308 1 c169 1 316 3 327 6 150
34 224 69 328 156 35 28 113 135 140 190 36 74 59 168 60 249 1 78 -16 114
-71 151 l-35 25 -1214 0 c-668 0 -1215 0 -1216 -1z"/></g></svg>